<svg xmlns="http://www.w3.org/2000/svg" width="18" height="18" viewBox="0 0 18 18"><path d="M6.79,1.554C7.749,1.51,8.055,1.5,10.5,1.5s2.751.011,3.71.054a6.623,6.623,0,0,1,2.186.418A4.607,4.607,0,0,1,19.027,4.6a6.619,6.619,0,0,1,.419,2.185c.044.961.054,1.267.054,3.711s-.011,2.751-.054,3.71a6.6,6.6,0,0,1-.419,2.185A4.595,4.595,0,0,1,16.4,19.027a6.619,6.619,0,0,1-2.185.419c-.961.044-1.267.054-3.711.054s-2.751-.011-3.71-.054A6.6,6.6,0,0,1,4.6,19.027,4.6,4.6,0,0,1,1.972,16.4a6.643,6.643,0,0,1-.418-2.185C1.51,13.25,1.5,12.944,1.5,10.5s.011-2.751.054-3.71A6.623,6.623,0,0,1,1.972,4.6,4.415,4.415,0,0,1,3.011,3.01,4.412,4.412,0,0,1,4.6,1.972a6.643,6.643,0,0,1,2.185-.418Zm7.347,1.62c-.949-.043-1.234-.052-3.637-.052s-2.688.009-3.637.052a4.974,4.974,0,0,0-1.672.31A2.972,2.972,0,0,0,3.484,5.192a4.974,4.974,0,0,0-.31,1.672c-.043.949-.052,1.234-.052,3.637s.009,2.688.052,3.637a4.974,4.974,0,0,0,.31,1.672,2.972,2.972,0,0,0,1.708,1.708,4.974,4.974,0,0,0,1.672.31c.949.043,1.233.052,3.637.052s2.688-.009,3.637-.052a4.974,4.974,0,0,0,1.672-.31,2.972,2.972,0,0,0,1.708-1.708,4.974,4.974,0,0,0,.31-1.672c.043-.949.052-1.234.052-3.637s-.009-2.688-.052-3.637a4.974,4.974,0,0,0-.31-1.672,2.972,2.972,0,0,0-1.708-1.708,4.974,4.974,0,0,0-1.672-.31ZM9.35,13.274A3,3,0,1,0,7.5,10.5,3,3,0,0,0,9.35,13.274ZM7.229,7.229a4.626,4.626,0,1,1,0,6.542,4.626,4.626,0,0,1,0-6.542Zm8.923-.666a1.094,1.094,0,1,0-1.524-.022,1.094,1.094,0,0,0,1.524.022Z" transform="translate(-1.5 -1.5)" fill="#fff"/></svg>