<svg xmlns="http://www.w3.org/2000/svg" width="21.55" height="18" viewBox="0 0 21.55 18"><g transform="translate(-832.288 -102.746)"><path d="M21.1,8.248a2.5,2.5,0,0,0-.688-1.14,2.738,2.738,0,0,0-1.2-.666C17.523,6,10.768,6,10.768,6a68.792,68.792,0,0,0-8.43.422,2.837,2.837,0,0,0-1.2.682,2.6,2.6,0,0,0-.7,1.146A26.117,26.117,0,0,0,0,13.179a26.07,26.07,0,0,0,.438,4.933,2.538,2.538,0,0,0,.7,1.139,2.779,2.779,0,0,0,1.2.667c1.709.444,8.43.444,8.43.444a68.95,68.95,0,0,0,8.441-.422,2.738,2.738,0,0,0,1.2-.666,2.5,2.5,0,0,0,.687-1.14,25.48,25.48,0,0,0,.45-4.933A23.863,23.863,0,0,0,21.1,8.247ZM8.62,16.254V10.106l5.62,3.074L8.62,16.254Z" transform="translate(832.289 98.21)" fill="#fff"/><rect width="6" height="18" transform="translate(843.191 102.746)" fill="none"/></g></svg>