<svg xmlns="http://www.w3.org/2000/svg" xmlns:xlink="http://www.w3.org/1999/xlink" width="28" height="28" viewBox="0 0 28 28"><defs><clipPath id="a"><rect width="26.35" height="26.35" transform="translate(0 0)" fill="none"/></clipPath></defs><g transform="translate(-956 -695)"><g transform="translate(957 696)"><g transform="translate(0 0)" clip-path="url(#a)"><path d="M25.557,12.779a12.779,12.779,0,1,0-15.866,12.4v-8.5H7.057v-3.9H9.692V11.1c0-4.349,1.968-6.365,6.238-6.365a14.09,14.09,0,0,1,2.778.317v3.54c-.3-.032-.825-.048-1.476-.048-2.1,0-2.9.794-2.9,2.857v1.381H18.5l-.717,3.9H14.327v8.78A12.78,12.78,0,0,0,25.557,12.779" transform="translate(0.396 0.396)" fill="#0866ff"/><path d="M148.781,104.5l.717-3.9h-4.174V99.215c0-2.064.81-2.857,2.9-2.857.651,0,1.175.016,1.476.048v-3.54a14.09,14.09,0,0,0-2.778-.318c-4.27,0-6.238,2.016-6.238,6.365V100.6h-2.635v3.9h2.635V113a12.85,12.85,0,0,0,4.635.283V104.5Z" transform="translate(-130.601 -87.421)" fill="#fff"/></g></g><rect width="28" height="28" transform="translate(956 695)" fill="none"/></g></svg>