<svg xmlns="http://www.w3.org/2000/svg" xmlns:xlink="http://www.w3.org/1999/xlink" width="28" height="28" viewBox="0 0 28 28"><defs><clipPath id="a"><rect width="26.35" height="26.35" fill="none"/></clipPath></defs><g transform="translate(-1000 -695)"><g transform="translate(1001 696)"><g clip-path="url(#a)"><path d="M20.094,25.942H5.848A5.848,5.848,0,0,1,0,20.094V5.848A5.848,5.848,0,0,1,5.848,0H20.094a5.848,5.848,0,0,1,5.848,5.848V20.094a5.848,5.848,0,0,1-5.848,5.848" fill="#06c755"/><path d="M70.577,65.364c0-3.87-3.88-7.019-8.649-7.019s-8.649,3.149-8.649,7.019c0,3.47,3.077,6.375,7.233,6.925.282.061.665.186.762.427a1.776,1.776,0,0,1,.028.782s-.1.61-.123.74c-.038.219-.174.855.749.466a27.926,27.926,0,0,0,6.8-5.021h0a6.245,6.245,0,0,0,1.854-4.319" transform="translate(-48.96 -53.615)" fill="#fff"/><path d="M201.747,125.961h-2.43a.165.165,0,0,1-.165-.165v0h0v-3.768h0v0a.165.165,0,0,1,.165-.165h2.43a.166.166,0,0,1,.165.165v.613a.165.165,0,0,1-.165.165H200.1v.637h1.651a.166.166,0,0,1,.165.165v.613a.165.165,0,0,1-.165.165H200.1v.637h1.651a.166.166,0,0,1,.165.165v.613a.165.165,0,0,1-.165.165" transform="translate(-183.007 -111.977)" fill="#06c755"/><path d="M90.873,125.961a.165.165,0,0,0,.165-.165v-.613a.166.166,0,0,0-.165-.165H89.222v-3a.166.166,0,0,0-.165-.165h-.613a.165.165,0,0,0-.165.165v3.772h0v0a.165.165,0,0,0,.165.165h2.43Z" transform="translate(-81.121 -111.977)" fill="#06c755"/><path d="M129.509,121.855H128.9a.165.165,0,0,0-.165.165v3.775a.165.165,0,0,0,.165.165h.613a.165.165,0,0,0,.165-.165V122.02a.165.165,0,0,0-.165-.165" transform="translate(-118.294 -111.976)" fill="#06c755"/><path d="M151.067,121.855h-.613a.165.165,0,0,0-.165.165v2.242l-1.727-2.332-.013-.017h0l-.01-.01,0,0-.009-.008,0,0-.009-.006-.005,0-.009-.005-.005,0-.01,0-.005,0-.01,0-.006,0-.01,0h-.64a.165.165,0,0,0-.165.165v3.775a.165.165,0,0,0,.165.165h.613a.165.165,0,0,0,.165-.165v-2.241l1.729,2.335a.168.168,0,0,0,.043.042h0l.01.006,0,0,.008,0,.008,0,.005,0,.011,0h0a.168.168,0,0,0,.043.006h.61a.165.165,0,0,0,.165-.165V122.02a.165.165,0,0,0-.165-.165" transform="translate(-135.676 -111.976)" fill="#06c755"/></g></g><rect width="28" height="28" transform="translate(1000 695)" fill="none"/></g></svg>