<svg xmlns="http://www.w3.org/2000/svg" width="28" height="28" viewBox="0 0 28 28"><g transform="translate(-1042 -695)"><path d="M6.971,21.414V11.086l11.371,6a.843.843,0,0,0,.855,0l11.373-6V21.414a4.214,4.214,0,0,1-4.214,4.214H11.185A4.214,4.214,0,0,1,6.971,21.414ZM7,9.147A4.214,4.214,0,0,1,11.185,5.4H26.356a4.214,4.214,0,0,1,4.189,3.748L18.771,15.379,7,9.147ZM22.985,29a4.208,4.208,0,0,0,3.371-1.686H11.185a5.9,5.9,0,0,1-5.9-5.9V9.614A4.208,4.208,0,0,0,3.6,12.985v8.428A7.585,7.585,0,0,0,11.185,29Z" transform="translate(1038.4 691.6)" fill="#2b2b2b"/><rect width="28" height="28" transform="translate(1042 695)" fill="none"/></g></svg>