<svg xmlns="http://www.w3.org/2000/svg" width="9.921" height="12" viewBox="0 0 9.921 12"><g transform="translate(13713.211 16690)"><path d="M1.894,11.651A1.868,1.868,0,0,1,0,9.884c0-.011,0-.023,0-.035s0-.01,0-.015,0-.01,0-.015V1.832A1.866,1.866,0,0,1,1.894,0H9.42a.5.5,0,0,1,.5.5V11.15a.5.5,0,0,1-.5.5Zm0-1H8.921v-1.6H1.894A.855.855,0,0,0,1,9.835.867.867,0,0,0,1.894,10.651ZM1,1.832V8.262a1.959,1.959,0,0,1,.894-.214H8.921V1H1.894A.865.865,0,0,0,1,1.832Z" transform="translate(-13713.211 -16690)" fill="#fff"/><rect width="3" height="12" transform="translate(-13711 -16690)" fill="none"/></g></svg>