<svg xmlns="http://www.w3.org/2000/svg" width="9.421" height="12" viewBox="0 0 9.421 12"><g transform="translate(13714 16710)"><g transform="translate(-13713.5 -16709.5)"><path d="M13.368,14.026H7.053A1.554,1.554,0,0,1,5.5,12.473V4.053A1.554,1.554,0,0,1,7.053,2.5h3.979a1.544,1.544,0,0,1,1.085.442l2.337,2.285a1.561,1.561,0,0,1,.467,1.11v6.135A1.554,1.554,0,0,1,13.368,14.026ZM7.053,3.5a.553.553,0,0,0-.553.553v8.421a.553.553,0,0,0,.553.553h6.316a.553.553,0,0,0,.553-.553V6.338a.556.556,0,0,0-.166-.395L11.418,3.657a.55.55,0,0,0-.386-.157Zm3.158,7.894H8.631a.5.5,0,0,1,0-1H10.21a.5.5,0,0,1,0,1Zm1.579-2.105H8.631a.5.5,0,0,1,0-1h3.158a.5.5,0,0,1,0,1Z" transform="translate(-6 -3)" fill="#fff"/><path d="M24.489,6.989H22.163A1.665,1.665,0,0,1,20.5,5.326V3h1V5.326a.664.664,0,0,0,.663.663h2.326Z" transform="translate(-16.069 -3)" fill="#fff"/></g><rect width="3" height="12" transform="translate(-13711 -16710)" fill="none"/></g></svg>