<svg xmlns="http://www.w3.org/2000/svg" width="11.784" height="12" viewBox="0 0 11.784 12"><g transform="translate(13714.5 16731)"><g transform="translate(-13708.711 -16733.082)"><path d="M12.706,14.606H4.078A1.575,1.575,0,0,1,2.5,13.038V5.567A1.575,1.575,0,0,1,4.078,4H6.647a1.571,1.571,0,0,1,1.412.865l.482.954a.576.576,0,0,0,.518.316h3.647A1.575,1.575,0,0,1,14.284,7.7v5.337A1.575,1.575,0,0,1,12.706,14.606ZM4.078,5a.574.574,0,0,0-.578.567v7.471a.574.574,0,0,0,.578.567h8.627a.574.574,0,0,0,.578-.567V7.7a.574.574,0,0,0-.578-.567H9.059A1.571,1.571,0,0,1,7.648,6.27l-.482-.954A.576.576,0,0,0,6.647,5Z" transform="translate(-8.289 -1.221)" fill="#fff"/></g><rect width="3" height="12" transform="translate(-13711 -16731)" fill="none"/></g></svg>