<svg xmlns="http://www.w3.org/2000/svg" xmlns:xlink="http://www.w3.org/1999/xlink" width="251.219" height="55.122" viewBox="0 0 251.219 55.122"><defs><clipPath id="a"><rect width="251.219" height="55.122" fill="#fff"/></clipPath></defs><g transform="translate(0 0)" clip-path="url(#a)"><path d="M3.059,16.625c0,.188-.057.246-1.02.246-.719,0-1-.058-1-.228.228-3.081.228-6.6.228-7.977-.02-1.493-.02-4.592-.151-7.465,0-.076.018-.17.131-.17h.02c1.474.113,5.5.15,7.106.15,1.757,0,5.556-.056,7.125-.189h.039c.15,0,.188.115.188.209-.093,2.42-.113,4.8-.113,6.351,0,1.077,0,4.271.208,8.808a.273.273,0,0,1-.227.283c-.265.019-.623.019-.945.019-.719,0-.831-.037-.831-.265,0-.208.018-.435.018-.661-1.077-.019-4.12-.039-5.443-.039-1.248,0-4.065.02-5.349.039ZM13.926,8.78c0-1.171-.037-6.067-.037-6.067S9.882,2.675,8.37,2.675s-5.426.038-5.426.038-.018,4.858-.018,6.011c0,.586.057,2.949.094,5.445,1.266.018,4.1.056,5.349.056,1.341,0,4.441-.038,5.5-.056.039-2.345.057-4.839.057-5.388M9.466,5.529c0,.057-.038.132-.151.189-.113.077-.151.113-.151.3,0,.4-.019.869-.019,1.362.794-.019,1.4-.094,2.533-.17.094,0,.151.057.169.17.02.132.02.472.02.776a4.055,4.055,0,0,1-.02.548.164.164,0,0,1-.169.112c-1.059-.074-1.739-.132-2.533-.151,0,1,0,2,.019,2.722.982-.019,1.777-.057,3.553-.17.17,0,.246.019.246.833a6.926,6.926,0,0,1-.037.718.194.194,0,0,1-.19.113c-2.117-.151-3.024-.151-4.347-.151-1.228,0-2.042,0-4.177.151-.209,0-.246,0-.246-.794,0-.814.018-.87.246-.87,1.7.113,2.532.151,3.4.17.018-.831.038-1.757.038-2.722-.738.019-1.437.077-2.476.151-.189,0-.227-.018-.227-.755,0-.757.038-.833.169-.833h.058c1.02.076,1.719.132,2.456.151,0-.642,0-1.285-.018-1.891-.794.019-1.513.058-3.1.17-.208,0-.246,0-.246-.775,0-.812.038-.831.246-.831,2.116.131,2.7.17,3.874.17,1.379,0,1.834-.039,3.988-.17.189,0,.208.019.208.926a4.652,4.652,0,0,1-.019.568.19.19,0,0,1-.189.112c-1.417-.094-2.154-.132-2.911-.151Zm2.061,5.614a.139.139,0,0,1-.076-.038,5.972,5.972,0,0,0-1.7-1c-.094-.019-.151-.057-.151-.115,0-.074.6-1.115.757-1.115.282,0,1.927.568,1.927.851a5.955,5.955,0,0,1-.6,1.323.193.193,0,0,1-.151.094" transform="translate(0.187 0.18)" fill="#fff"/><path d="M35.173,14.261c.169,0,.246.057.246.946,0,.811-.02.945-.227.945-3.742-.151-5.67-.17-7.844-.17-2,0-3.988.019-7.542.17-.227,0-.246-.019-.246-.908,0-.982.038-.982.246-.982,2.306.151,3.876.189,5.217.189.814,0,1.55-.018,2.306-.018a41.337,41.337,0,0,0,2.5-8.148c.018-.112.076-.226.207-.226s2.383.642,2.383,1.134c0,.151-.209.283-.417.491a1.534,1.534,0,0,0-.4.623c-.455,1.171-1.494,3.819-2.44,6.125,1.55-.02,3.177-.058,6.012-.171M28.387,4.016c1.513,0,2.306-.037,5.557-.169.17,0,.246.057.246.945,0,.812-.019.945-.226.945-3.743-.151-4.442-.17-6.616-.17-2,0-2.949.019-6.5.17-.227,0-.247-.018-.247-.907,0-.982.038-.982.247-.982,2.267.151,3.44.189,4.46.189.4,0,.794-.02,1.21-.02V3.033A13.445,13.445,0,0,0,26.307.765a.327.327,0,0,1-.019-.112c0-.057.019-.077.1-.077a13.913,13.913,0,0,1,2.267.4c.19.057.265.151.265.265,0,.246-.3.586-.4.926a3.041,3.041,0,0,0-.132.889ZM24.739,13.43a.184.184,0,0,1-.189-.171,20.238,20.238,0,0,0-2.042-5.972.121.121,0,0,1-.018-.077A.235.235,0,0,1,22.6,7,9.389,9.389,0,0,1,24,6.55c.661,0,2.571,5.557,2.571,6.048,0,.378-1.8.831-1.834.831" transform="translate(3.538 0.105)" fill="#fff"/><path d="M39.523,10.615A8.125,8.125,0,0,0,37.69,9.8c-.077-.038-.133-.057-.133-.094,0-.02.038-.038.094-.076a10.677,10.677,0,0,0,5.2-5.859.1.1,0,0,1,.094-.076c.151,0,2.193.718,2.193,1.039,0,.113-.132.227-.321.322a1.319,1.319,0,0,0-.568.435c-2.363,3.893-4.347,5.178-4.555,5.178a.3.3,0,0,1-.17-.057M41.13,16.21c-.285.057-.455.266-.606.266-.359,0-1.21-1.967-1.21-2.137,0-.037.02-.076.247-.076h.208A30.8,30.8,0,0,0,43,14.017a28.033,28.033,0,0,0,1.7-6.766c.019-.113.019-.151.057-.151.169,0,2.665.662,2.665,1.039,0,.209-.3.435-.474.567a1.469,1.469,0,0,0-.472.681l-1.494,4.366c1.626-.227,3.214-.491,4.367-.68-.567-.7-1.039-1.21-1.173-1.362a.261.261,0,0,1-.057-.132,3.669,3.669,0,0,1,1.325-.982c.207,0,3.969,4.214,3.969,4.65,0,.283-1.38,1.209-1.607,1.209-.076,0-.132-.057-.208-.189a16.125,16.125,0,0,0-1.21-1.853ZM43.964,1.3c.984.094,1.815.151,2.665.151.7,0,1.418-.038,2.268-.094.038,0,.076-.019.113-.019.057,0,.113.057.151.283A9.7,9.7,0,0,0,55.23,8.65c.076.038.132.074.132.132s-.057.113-.151.151a6.444,6.444,0,0,0-1.853.964.182.182,0,0,1-.169.076,12.924,12.924,0,0,1-5.614-6.919c-.3-.018-.606-.018-.888-.018-1.023,0-1.872.094-2.723.132-.151,0-.189-.038-.189-1.3,0-.567.019-.567.115-.567Z" transform="translate(6.792 0.235)" fill="#fff"/><path d="M64.58,3.345A16.561,16.561,0,0,0,64.41.509.327.327,0,0,1,64.391.4c0-.058.019-.077.094-.077.189,0,2.418.208,2.418.606,0,.226-.3.548-.4.888a16.533,16.533,0,0,0-.132,2.192c1.324-.018,3.894-.055,6.465-.189.227,0,.246.133.246,1.078a5.932,5.932,0,0,1-.019.625c0,.093-.115.151-.227.151-1.323-.077-2.665-.115-3.837-.133.775.283.794.474.794.529,0,.151-.228.3-.474.453a1.985,1.985,0,0,0-.566,1.021,13.68,13.68,0,0,1-2.231,3.988,11.853,11.853,0,0,0,7.05,3.479c.113.018.209.037.209.074s-.058.094-.19.189a7.806,7.806,0,0,0-1.664,1.418.218.218,0,0,1-.208.113,14.706,14.706,0,0,1-6.275-4.026,15.085,15.085,0,0,1-6.71,4.158c-.113,0-.208-.019-.246-.094A4.887,4.887,0,0,0,57,15.516c-.133-.094-.189-.151-.189-.189s.094-.038.207-.057a12.252,12.252,0,0,0,7.391-3.742A13.4,13.4,0,0,1,62.5,7.975a12.227,12.227,0,0,0-.756,1.153c-.057.171-.019.36-.17.36a3.49,3.49,0,0,1-1.568-1.021.223.223,0,0,1,.056-.132,9.517,9.517,0,0,0,2.363-2.815c-1.247.018-2.758.074-4.29.151-.189,0-.246-.058-.246-.928,0-.849,0-.926.151-.926h.094c2.609.133,5.14.171,6.445.189ZM63.333,5.5c.34.151.566.283.566.453a.333.333,0,0,1-.074.17.445.445,0,0,0-.115.34,1.089,1.089,0,0,0,.02.246,12.732,12.732,0,0,0,1.739,3.535A10.175,10.175,0,0,0,67.415,5.5Z" transform="translate(10.275 0.058)" fill="#fff"/><path d="M89.92,6.993c0,.19-.228.265-1.04.265-.377,0-.717-.019-.717-.265V6.955H85.289v.908c1.455,0,2.25,0,5.311-.132.151,0,.208.018.208.641a3.832,3.832,0,0,1-.038.53c0,.076-.057.113-.151.113-2.949-.113-3.913-.152-5.31-.152v.87c1.908,0,4.026,0,7.276-.151.189,0,.207.151.207.718a4.565,4.565,0,0,1-.038.586c0,.077-.057.115-.169.115-3.611-.152-6.087-.152-8.071-.152-3.345,0-5.085.02-7.9.152-.132,0-.189-.038-.207-.152,0-.131-.02-.359-.02-.566,0-.7,0-.7.227-.7,3.27.151,5.16.151,7.031.151l.02-.87c-1.456,0-2.383.02-5.426.152-.131,0-.151-.038-.169-.132,0-.113-.019-.3-.019-.511,0-.641.019-.641.208-.641,3.081.132,3.931.132,5.406.132V6.955c-1.1.019-2.306.077-4.9.151-.076,0-.076-.038-.1-.151,0-.132-.018-.321-.018-.51,0-.661.038-.661.189-.661,2.7.151,3.742.151,4.82.151V5.066c-1.853,0-3.838,0-7.089.132-.132,0-.208-.02-.227-.132,0-.133-.019-.34-.019-.548,0-.68,0-.68.246-.68,3.289.131,5.217.151,7.089.151V3.081c-.869.019-2.457.038-4.839.132-.17,0-.17-.094-.17-.85,0-.474.076-.474.208-.474,2.418.115,3.932.133,4.781.133C83.606,1.3,83.532.775,83.455.189V.094c0-.076.02-.094.133-.094h.094c.51,0,2.135.208,2.135.548a.939.939,0,0,1-.246.472c-.208.3-.246.321-.263,1,1.284,0,3.5-.039,4.46-.133h.057c.074,0,.094.02.094.094v.094a12.451,12.451,0,0,0-.113,1.854c.907-.02,1.891-.058,2.985-.094.19,0,.19.074.19.717a3.933,3.933,0,0,1-.039.549c0,.074-.037.113-.151.113-1.077-.039-2.059-.076-2.966-.094.018.641.057,1.266.094,1.852Zm-.189,9.962c0,.131-.039.208-1.021.208-.737,0-.794-.094-.794-.208v-.02l.019-.246c-.795,0-2.93-.038-3.421-.038-.51,0-2.684.038-3.4.038,0,.133.019.246.019.379,0,.246-.039.263-.927.263-.812,0-.869-.055-.869-.226V17.03a28.413,28.413,0,0,0,.151-2.854c0-.814,0-1.513-.076-2.363,0-.076-.019-.113-.019-.151s.019-.057.132-.057h.132c.794.057,3.876.076,4.9.076,1,0,3.685-.038,4.914-.094h.058c.131,0,.189.057.189.17v.057c-.094,1.209-.094,2-.094,2.438,0,.4,0,1.343.113,2.571Zm-1.739-4.178s-2.835-.019-3.5-.019-3.383.019-3.383.019-.02.4-.02.795c.7,0,2.949.018,3.4.018s2.8-.018,3.515-.018c0-.379-.019-.795-.019-.795m-6.9,2.665c.7,0,2.949.038,3.4.038.435,0,2.722-.038,3.478-.038.019-.3.019-.567.019-.794-.718,0-2.968-.038-3.478-.038s-2.722.038-3.422.038ZM88.238,3.081H85.289v.908c.889,0,1.852,0,2.949-.02ZM85.289,5.935c2.382,0,2.8-.019,2.93-.019.019-.283.019-.567.019-.833-1.115-.018-2.079-.018-2.949-.018Z" transform="translate(13.805 0)" fill="#fff"/><path d="M109.787,16.628c0-.189.019-.4.019-.586-.4-.02-1.285-.02-1.7-.02s-1.36,0-1.777.02v.68c0,.265-.037.283-.849.283-.757,0-.851,0-.851-.227V16.7c.132-1.189.132-7.314.132-7.729,0-.719,0-2.117-.057-2.988-.189,0-.378.019-.567.019-.529,0-.757-.019-.757-.17V5.8a14.468,14.468,0,0,0,.152-1.494V4.114a4.752,4.752,0,0,0-1.1.625.247.247,0,0,1-.133.056,6.65,6.65,0,0,1-2.04-2.248,15.878,15.878,0,0,1-2.476,3.119c.51.038,1.228.076,1.8.094A7.254,7.254,0,0,0,99.353,4.1V4.058c0-.094.077-.132.189-.132a14.16,14.16,0,0,1,1.834.246c.132.02.171.077.171.151,0,.152-.171.36-.266.549a1.508,1.508,0,0,0-.208.888l1.853-.094h.055c.133,0,.171.057.171.189V5.91c-.076,1.04-.094,1.664-.094,2.117,0,.34,0,1.683.131,3.421v.132c0,.247-.377.247-1.077.247-.51,0-.548-.02-.548-.285l.019-.208c-.416-.019-1.077-.019-1.3-.019-.207,0-.775,0-1.189.019v2.892c.718-.228,1.417-.491,1.965-.68-.246-.265-.491-.474-.6-.6-.038-.058-.077-.094-.077-.132a3.852,3.852,0,0,1,1.1-.681,10.36,10.36,0,0,1,2.457,2.647.159.159,0,0,1,.057.112c0,.17-.888.737-1.153.888a.14.14,0,0,1-.1.039.146.146,0,0,1-.132-.1,6.164,6.164,0,0,0-.642-1.077c-.642.246-3.988,1.568-4.555,1.776-.266.094-.359.341-.529.341a3.453,3.453,0,0,1-1.267-1.532c0-.076.113-.056.228-.094.471-.094,1.039-.227,1.663-.416.018-1.323.057-5.99.057-6.388,0-.567,0-.965-.076-2.382l-.019.019a.354.354,0,0,1-.246.094A.215.215,0,0,1,97.067,6a5.014,5.014,0,0,0-1.323-.623c-.058-.038-.1-.076-.1-.113,0-.019.019-.057.076-.094A11.579,11.579,0,0,0,99.655.334c.02-.074.058-.094.132-.094.266,0,1.72.34,1.72.623,0,.133-.321.379-.416.417a10.415,10.415,0,0,0,2.438,2.325c0-.209-.019-.435-.038-.719V2.811c0-.094.019-.113.113-.113h.076c1.379.113,2.551.132,3.327.132V2.452A10.352,10.352,0,0,0,106.8.429V.391c0-.094.038-.113.113-.113h.057A11.762,11.762,0,0,1,108.956.6c.131.037.189.112.189.208a1.723,1.723,0,0,1-.283.6,1.889,1.889,0,0,0-.246,1.1l-.02.3c.927,0,2.231-.019,3.611-.113.132,0,.132.057.132.17-.019.529-.019,1.19-.019,1.475a10.526,10.526,0,0,0,.076,1.209v.038c0,.076-.038.151-.812.151-.266,0-.53,0-.7-.019V5.74c-.076,1.171-.093,1.474-.093,1.908,0,.379.018,1.286.112,2.5v.132c0,.208-.491.208-.964.208-.68,0-.718-.113-.718-.208v-.038c0-.094.018-.189.018-.283-.4,0-.868-.019-1.151-.019-.417,0-1.362,0-1.777.019v1.379c.548,0,1.285.019,1.814.019.908,0,1.985-.038,3.138-.094h.057c.132,0,.171.038.171.151v.057c-.1,1.209-.1,2-.1,2.457,0,.4.019,1.36.113,2.609,0,.057.02.113.02.151,0,.094-.038.189-1,.189-.623,0-.737-.02-.737-.208ZM101.6,6.874s-.964-.038-1.324-.038-1.189.038-1.189.038-.02.586-.02,1.1c.435.019,1.058.019,1.248.019.207,0,.907-.019,1.3-.038,0-.453-.019-1.078-.019-1.078M99.09,10.219c.414.02,1,.02,1.189.02.209,0,.908,0,1.324-.02,0-.414.019-.831.019-1.151-.4-.02-1.058-.02-1.286-.02-.208,0-.849,0-1.266.02Zm10.187-6.085c-.661,0-1.248.019-1.625.019-.4,0-.757-.019-1.21-.019-.34,0-.738.019-1.267.037,0,.4,0,.775.038,1.4.757.038,1.834.057,2.646.057.888,0,1.645-.019,2.76-.076.019-.68.077-1.077.077-1.38-.492-.037-.965-.037-1.418-.037m-.019,3.383c0-.36-.02-.644-.02-.644s-.811-.018-1.417-.018-1.494.018-1.494.018-.018,1.154-.018,1.8c.435.019,1.4.019,1.757.019.246,0,.775-.019,1.192-.019Zm.586,6.256c0-.378-.019-1.154-.019-1.154s-1.135-.018-1.738-.018c-.36,0-1.173.018-1.777.018v2.1c.435,0,1.417.019,1.777.019.377,0,1.34-.019,1.757-.019Z" transform="translate(17.292 0.044)" fill="#fff"/><path d="M.4,34.986a70.919,70.919,0,0,0,7.472.339c4.53,0,8.464-.17,11.72-.368.282,0,.282.227.282,1.926,0,.877,0,1.075-.254,1.075-2.492-.141-4.869-.2-7.275-.226-.142,3.566-2.6,9-7.869,12a.852.852,0,0,1-.367.086.8.8,0,0,1-.538-.2A7.552,7.552,0,0,0,1.105,48.4c-.228-.085-.34-.17-.34-.227,0-.113.142-.2.311-.255a11.767,11.767,0,0,0,8.153-10.19C6.313,37.76,3.4,37.9.368,38.1,0,38.1,0,37.985,0,36.542c0-1.416.03-1.556.285-1.556Zm3.284-5.237C6.455,29.974,7.9,30,9.228,30a70.831,70.831,0,0,0,7.19-.254c.142,0,.227.084.254.254a11.264,11.264,0,0,1,.057,1.217c0,.51-.027,1.019-.057,1.3,0,.142-.169.17-.254.17-2.632-.227-4.076-.255-5.549-.255-3.962,0-5.378.113-7.189.255-.34,0-.368-.142-.368-1.274,0-1.643.085-1.67.255-1.67ZM18.769,31.73c-.142,0-.2-.086-.255-.227a28.607,28.607,0,0,0-2.235-3.539.2.2,0,0,1-.03-.112c0-.283,1.331-.907,1.556-.907a14.8,14.8,0,0,1,2.662,3.709c0,.4-1.443,1.076-1.7,1.076m3.339-1.217c-.141,0-.2-.085-.255-.227a28.091,28.091,0,0,0-2.235-3.538.214.214,0,0,1-.028-.113c0-.283,1.33-.906,1.558-.906a14.6,14.6,0,0,1,2.632,3.68c0,.34-1.388,1.1-1.671,1.1" transform="translate(0 4.654)" fill="#fff"/><path d="M29.783,40.848a25.848,25.848,0,0,0-4.7-3.114c-.113-.057-.169-.113-.169-.2a5.538,5.538,0,0,1,1.5-1.868c.567,0,5.124,2.435,5.124,2.916a6.679,6.679,0,0,1-1.614,2.35c-.057,0-.085-.028-.141-.085m.679,7.954c-.934.453-1.217.849-1.558.849-.622,0-2.689-2.18-2.689-2.632,0-.113.113-.2.339-.255,6.172-1.246,14.38-7.36,18.258-11.522.113-.112.17-.169.227-.169.085,0,.113.113.142.34a6.687,6.687,0,0,0,.792,2.292.547.547,0,0,1,.085.283.583.583,0,0,1-.227.425A60.054,60.054,0,0,1,30.462,48.8M33.6,35.781a26.136,26.136,0,0,0-4.53-3.341c-.113-.055-.17-.112-.17-.2a4.635,4.635,0,0,1,1.558-1.811c.509,0,4.954,2.718,4.954,3.114a6.456,6.456,0,0,1-1.671,2.322c-.057,0-.084-.028-.141-.085m8.86-1.953a.341.341,0,0,1-.255-.17,31.151,31.151,0,0,0-3-2.887.17.17,0,0,1-.085-.17,2.826,2.826,0,0,1,1.358-1.189c.312,0,3.426,2.577,3.426,3s-1.161,1.416-1.443,1.416m2.944-1.981a.341.341,0,0,1-.255-.17,31.436,31.436,0,0,0-3-2.887.17.17,0,0,1-.085-.17c0-.312,1.217-1.188,1.358-1.188.34,0,3.426,2.575,3.426,3,0,.283-1.047,1.416-1.443,1.416" transform="translate(4.506 4.961)" fill="#fff"/><path d="M61.458,31.55a21.863,21.863,0,0,0,5.124-.34,1.3,1.3,0,0,1,.368-.141c.169,0,2.264,1.075,2.264,1.613,0,.34-.764.566-1.131,1.3a41.232,41.232,0,0,1-3.992,6.2c1.019.764,3,2.32,3,2.717,0,.424-1.869,2.152-2.123,2.152a.245.245,0,0,1-.171-.085,19.781,19.781,0,0,0-2.575-2.548c-5.434,5.859-10.474,7.049-10.531,7.049a.3.3,0,0,1-.254-.142c-.567-.764-1.725-1.131-2.15-1.443-.143-.113-.2-.2-.2-.255,0-.085.112-.17.339-.227a23.029,23.029,0,0,0,10.7-6.623c-1.3-.934-2.492-1.7-3.143-2.067a.255.255,0,0,1-.112-.227c0-.226,1.273-1.585,1.669-1.585a21.3,21.3,0,0,1,3.37,1.811A26.466,26.466,0,0,0,65,33.843c0-.113-.085-.142-.226-.142-.877,0-3.4.085-5.18.113-3.85,4.67-6.54,6.737-7.19,6.737a.481.481,0,0,1-.283-.085,9.178,9.178,0,0,0-1.9-.877.207.207,0,0,1-.171-.2.2.2,0,0,1,.115-.169c4.359-2.662,8.717-7.984,9.878-11.153.058-.2.143-.255.255-.255.227,0,3.2,1.246,3.2,1.868,0,.255-.341.453-.766.651a3.3,3.3,0,0,0-.961.822Z" transform="translate(8.878 5.031)" fill="#fff"/><path d="M74.586,47.433a.674.674,0,0,1-.4-.142,13.135,13.135,0,0,0-2.435-1.132c-.085-.057-.141-.113-.141-.142a.143.143,0,0,1,.111-.141A14.46,14.46,0,0,0,78.888,34.27a5.6,5.6,0,0,0-.2-1.585.553.553,0,0,1-.028-.2c0-.142.086-.17.285-.17.622.028,3.821.312,3.821.879,0,.339-.821.848-.934,1.5-.879,4.444-2.662,9.482-6.908,12.625a.539.539,0,0,1-.339.113M86.56,42.224c0,.255.028.283.084.283a30.276,30.276,0,0,0,8.3-7.954c.084-.142.168-.2.226-.2s.085.085.141.255a7.831,7.831,0,0,0,.964,2.462.446.446,0,0,1,.084.255c0,.737-4.952,5.35-9.426,8.294-.367.226-.339.764-.736.764,0,0-2.577-.764-2.577-1.358a2.437,2.437,0,0,1,.113-.425c.227-1.981.227-7.049.227-9.766v-.453a20.026,20.026,0,0,0-.312-3.509c0-.057-.028-.085-.028-.113,0-.113.058-.142.17-.142a26.277,26.277,0,0,1,3.427.537c.224.085.311.17.311.34a6.851,6.851,0,0,1-.509,1.416c-.4,1.075-.453,3.339-.453,8.123Z" transform="translate(12.952 5.538)" fill="#fff"/><path d="M105.611,34.256c0-.227,0-.282.255-.282a21.979,21.979,0,0,1,3.51.622c.34.113.509.283.509.482,0,.227-.2.481-.594.792A1.617,1.617,0,0,0,108.527,37c-1.415,7.728-7.19,12.568-7.841,12.568a.681.681,0,0,1-.425-.17,10.534,10.534,0,0,0-2.717-1.217c-.142-.057-.227-.141-.227-.226s.085-.142.227-.227c3.708-1.953,8.068-6.54,8.068-12.908ZM99.072,32.7c-.424,0-.481-.453-.481-2.265,0-.622.028-.934.34-.934h.084c2.577.255,5.152.283,7.729.283,6.6,0,8.832-.227,9.256-.481a.976.976,0,0,1,.4-.171c.255,0,2.378,1.614,2.378,2.123,0,.4-.709.51-1.161,1.1a27.308,27.308,0,0,1-6.116,6.681c-.141.112-.226.2-.339.2s-.2-.086-.34-.255a5.746,5.746,0,0,0-1.613-.991c-.085-.057-.142-.113-.142-.2a.293.293,0,0,1,.142-.2,19.7,19.7,0,0,0,5.01-5.321c0-.086-.113-.142-.283-.142-.594,0-10.785.142-14.776.566Z" transform="translate(17.6 5.269)" fill="#fff"/><path d="M140.6,35.844c.17,0,.2.113.2.283.027.368.027,1.019.027,1.641,0,.453,0,.879-.027,1.1,0,.142-.085.227-.255.227-4.1-.312-6.907-.34-8.548-.34-5.8,0-8.153.142-10.559.34h-.056c-.171,0-.255-.085-.255-.283,0-.367-.03-.906-.03-1.415,0-1.416.057-1.558.2-1.558h.142c3.936.312,6.483.34,8.039.34a108.952,108.952,0,0,0,11.068-.34Z" transform="translate(21.901 6.483)" fill="#fff"/><path d="M154.932,45.883c.622.057,1.246.142,1.868.142,3.086,0,3.567-2.208,3.821-9.653,0-.311,0-.339-.169-.339-.849,0-2.775.057-4.415.084-.964,5.238-3.285,10.247-8.3,13.163a.7.7,0,0,1-.4.113.563.563,0,0,1-.4-.169,6.985,6.985,0,0,0-2.123-1.387.326.326,0,0,1-.226-.255c0-.085.084-.17.226-.226,5.18-2.209,7.474-6.511,8.323-11.153-2.01.085-4.53.2-6.029.367h-.084c-.425,0-.453-.4-.453-1.9,0-.877,0-1.132.424-1.132,2.152.2,4.3.283,6.455.283.085-1.047.142-2.123.142-3.171a24.657,24.657,0,0,0-.115-2.575v-.142c0-.113.03-.17.228-.17a21.582,21.582,0,0,1,3.538.538c.283.085.4.226.4.4a1.513,1.513,0,0,1-.453.822c-.312.339-.567.367-.622,1.7-.028.849-.113,1.7-.2,2.575a49.129,49.129,0,0,0,6.878-.425.553.553,0,0,1,.2-.028.254.254,0,0,1,.282.283c0,.057-.027.113-.027.17-.312,1.981-.17,9.087-1.473,11.974a5.64,5.64,0,0,1-5.519,3.171c-.991,0-1.162-.142-1.189-.651a9.276,9.276,0,0,0-.877-2.152.449.449,0,0,1-.057-.142c0-.085.084-.113.226-.113Z" transform="translate(26.152 5.022)" fill="#fff"/><path d="M179.364,49.62c.368-4.076.34-7.9.368-11.917-4.161,4.161-7.529,6.171-7.926,6.171a.431.431,0,0,1-.312-.113,9.906,9.906,0,0,0-2.745-1.359c-.255-.085-.339-.142-.339-.2s.112-.112.254-.17c6.935-2.916,11.408-8.52,13.445-11.182a9.4,9.4,0,0,0,1.274-2.235c.057-.142.113-.227.2-.227.228,0,3.171,1.643,3.171,2.208,0,.368-.709.509-.907.651a5.571,5.571,0,0,0-1.386,1.3c-.539.622-1.217,1.416-2.01,2.293.057,4.755-.028,10.161.339,14.861,0,.14-.084.283-1.556.283-1.528,0-1.868-.057-1.868-.312Z" transform="translate(30.458 5.135)" fill="#fff"/><path d="M193.918,34.649c-.339,0-.424-.254-.424-2.434,0-.651.028-.849.282-.849h.085c2.689.254,5.349.311,8.039.311,2.18,0,5.944-.084,6.623-.481a.608.608,0,0,1,.37-.142c.282,0,2.405,1.3,2.405,1.755,0,.4-.765.764-1.076,1.5-2.8,6.963-7.1,12.087-13.22,14.918a.986.986,0,0,1-.34.084.678.678,0,0,1-.424-.169,10.543,10.543,0,0,0-2.4-1.556c-.2-.115-.286-.2-.286-.283s.086-.142.286-.2c9.679-2.888,13.019-12.71,13.019-12.88,0-.113-.057-.142-.226-.142-4.3,0-11.267.424-12.626.566ZM210.9,31.621c-.113,0-.2-.085-.282-.226a27.33,27.33,0,0,0-2.35-3.454.154.154,0,0,1-.058-.142c0-.367,1.5-.906,1.558-.906.255,0,2.774,3.057,2.774,3.6a2.753,2.753,0,0,1-1.641,1.131m3.68-.566c-.112,0-.2-.085-.282-.227a26.816,26.816,0,0,0-2.35-3.453.159.159,0,0,1-.055-.142c0-.368,1.471-.906,1.528-.906a12.9,12.9,0,0,1,2.8,3.595,2.752,2.752,0,0,1-1.642,1.132" transform="translate(34.995 4.762)" fill="#fff"/><path d="M124.672,11.879c-.076,0-.133-.028-.133-.135,0-.019.011-.038.011-.057a18.485,18.485,0,0,0,.162-2.728,28.116,28.116,0,0,0-.144-3.635c-.008-.048-.018-.086-.018-.105,0-.086.047-.105.113-.105.03,0,.067.008.105.008a2.124,2.124,0,0,0,.259.011c.583,0,1.292-.115,2.019-.115,2.067,0,3.932,1.052,3.932,3.4a3.512,3.512,0,0,1-3.846,3.473c-.478,0-.89-.028-1.282-.048-.124-.008-.24-.008-.353-.008a6.952,6.952,0,0,0-.766.047Zm2.278-5.97a7.849,7.849,0,0,0-1.071.115c-.183.03-.2.077-.2,2.861,0,1.157.027,1.56.038,1.712.019.278.115.345,1.272.345a5.424,5.424,0,0,0,.795-.048,2.359,2.359,0,0,0,2.066-2.44,2.52,2.52,0,0,0-2.813-2.545Z" transform="translate(22.524 0.908)" fill="#fff"/><path d="M133.268,11.859c-.086-.009-.373-.028-.641-.028-.106,0-.22,0-.307.009h-.047c-.077,0-.106-.019-.106-.1v-.067c.02-.143.144-1.635.144-3.09a21.088,21.088,0,0,0-.152-3.387.435.435,0,0,1-.009-.105c0-.048.018-.077.076-.077h.02c.133.009.306.019.488.019s.364-.009.525-.019h.058c.076,0,.105.019.105.086v.039c-.143,1.1-.143,3.548-.143,3.749,0,.279,0,1.693.105,2.8v.039c0,.086-.03.124-.1.124Z" transform="translate(23.9 0.908)" fill="#fff"/><path d="M140.872,8.737a3.922,3.922,0,0,0,.775-.067.562.562,0,0,1,.116-.009c.067,0,.115.019.115.086a.34.34,0,0,1-.028.115,6.783,6.783,0,0,0-.106,1.416c0,.3.011.555.02.679.019.172.047.288.047.365s-.028.133-.143.191a6.665,6.665,0,0,1-2.383.477c-2,0-3.9-1.176-3.9-3.587a3.6,3.6,0,0,1,3.749-3.473,6.059,6.059,0,0,1,1.589.24c.286.076.66.22.88.257.163.039.21.087.21.163a.954.954,0,0,1-.038.191,4.54,4.54,0,0,0-.143,1.014.113.113,0,0,1-.125.115.121.121,0,0,1-.105-.057,2.815,2.815,0,0,0-2.372-1.024A2.389,2.389,0,0,0,136.5,8.374a2.613,2.613,0,0,0,2.871,2.708c1.071,0,1.367-.469,1.4-.737.009-.105.02-.22.02-.345a3.335,3.335,0,0,0-.154-1.052.234.234,0,0,1-.02-.105c0-.086.058-.105.135-.105Z" transform="translate(24.485 0.892)" fill="#fff"/><path d="M144.337,11.859c-.086-.009-.373-.028-.641-.028-.106,0-.22,0-.307.009h-.047c-.077,0-.106-.019-.106-.1v-.067c.02-.143.144-1.635.144-3.09a21.083,21.083,0,0,0-.152-3.387.434.434,0,0,1-.009-.105c0-.048.018-.077.076-.077h.02c.133.009.306.019.488.019s.364-.009.525-.019h.058c.076,0,.105.019.105.086v.039c-.143,1.1-.143,3.548-.143,3.749,0,.279,0,1.693.105,2.8v.039c0,.086-.03.124-.1.124Z" transform="translate(25.902 0.908)" fill="#fff"/><path d="M149.887,11.878a4.4,4.4,0,0,0-.6-.048,1.854,1.854,0,0,0-.477.048.127.127,0,0,1-.058.009c-.038,0-.067-.019-.067-.086v-.038a36.433,36.433,0,0,0,.173-3.78V7.42c0-.143-.009-1.033-.047-1.3-.028-.221-.077-.24-.545-.24a12.343,12.343,0,0,0-1.866.152h-.028a.1.1,0,0,1-.116-.115.166.166,0,0,1,.011-.066,6.343,6.343,0,0,0,.124-.718c.009-.1.038-.135.115-.135a.586.586,0,0,0,.058.011,9.181,9.181,0,0,0,1.071.085c.593.011,1.206.019,1.8.019a19.661,19.661,0,0,0,2.966-.152h.038a.084.084,0,0,1,.087.1v.028c-.02.2-.058.44-.058.66,0,.048.009.1.009.144v.019c0,.1-.048.105-.105.105H152.3a15.894,15.894,0,0,0-1.924-.124h-.22c-.21,0-.23.086-.24.23-.008.094-.047.88-.047,1.664,0,.44.009.871.009,1.5,0,.5.029,1.521.133,2.469v.019a.1.1,0,0,1-.1.105Z" transform="translate(26.45 0.898)" fill="#fff"/><path d="M158.713,11.886a3.088,3.088,0,0,0-.422-.019c-.2,0-.392.011-.555.019-.038,0-.066.011-.1.011-.077,0-.124-.03-.152-.135a7.389,7.389,0,0,0-.364-1.1c-.153-.381-.316-.736-.412-.966-.047-.133-.3-.152-1.062-.152-1.129,0-1.167.028-1.234.22-.163.469-.488,1.225-.69,1.99-.019.077-.038.154-.152.154-.02,0-.039-.009-.058-.009a3.257,3.257,0,0,0-.478-.038,5.115,5.115,0,0,0-.536.038c-.028,0-.047.009-.077.009-.047,0-.076-.02-.076-.058a.356.356,0,0,1,.057-.143,25.8,25.8,0,0,0,1.177-2.4,29.593,29.593,0,0,0,1.7-4.2c.009-.077.047-.115.153-.115a.635.635,0,0,0,.248-.105.246.246,0,0,1,.067-.019c.066,0,.115.057.135.133a54.043,54.043,0,0,0,2.9,6.649.435.435,0,0,1,.058.172c0,.047-.03.066-.1.066Zm-3.857-3.224a.094.094,0,0,0,.1.077c.106.009.287.009.478.009.307,0,.661-.009.872-.019a.074.074,0,0,0,.077-.067c0-.105-.669-1.7-.708-1.789-.028-.057-.048-.086-.077-.086s-.057.03-.076.1a17.235,17.235,0,0,0-.661,1.78" transform="translate(27.554 0.88)" fill="#fff"/><path d="M163.877,10.855a4,4,0,0,0-.038.87c0,.115-.125.135-.279.135,0,0-1.071-.039-2.133-.039-.527,0-1.053.011-1.436.039h-.009c-.076,0-.181-.124-.181-.2v-.011a19.63,19.63,0,0,0,.163-3.243,21.664,21.664,0,0,0-.125-3.214V5.143c0-.058.01-.116.105-.116h.028a3.052,3.052,0,0,0,.44.03,2.753,2.753,0,0,0,.439-.03.551.551,0,0,1,.116-.008c.077,0,.125.028.125.124v.038c-.1.756-.136,2.822-.136,3.78,0,.593.011,1.176.04,1.761.018.239.018.267.659.267a8.111,8.111,0,0,0,2.1-.229.1.1,0,0,1,.048-.009.078.078,0,0,1,.076.086Z" transform="translate(28.901 0.908)" fill="#fff"/><path d="M174.572,11.886a3.087,3.087,0,0,0-.422-.019c-.2,0-.392.011-.555.019-.038,0-.066.011-.1.011-.077,0-.124-.03-.152-.135a7.415,7.415,0,0,0-.364-1.1c-.154-.381-.316-.736-.412-.966-.047-.133-.3-.152-1.062-.152-1.129,0-1.167.028-1.234.22-.163.469-.488,1.225-.69,1.99-.019.077-.038.154-.152.154-.02,0-.039-.009-.058-.009a3.257,3.257,0,0,0-.478-.038,5.113,5.113,0,0,0-.536.038c-.028,0-.047.009-.077.009-.047,0-.076-.02-.076-.058a.355.355,0,0,1,.057-.143,25.816,25.816,0,0,0,1.177-2.4,29.625,29.625,0,0,0,1.7-4.2c.009-.077.047-.115.154-.115a.635.635,0,0,0,.248-.105.246.246,0,0,1,.067-.019c.066,0,.114.057.135.133a54.048,54.048,0,0,0,2.9,6.649.437.437,0,0,1,.058.172c0,.047-.03.066-.1.066Zm-3.857-3.224a.094.094,0,0,0,.1.077c.106.009.287.009.478.009.307,0,.661-.009.872-.019a.074.074,0,0,0,.077-.067c0-.105-.67-1.7-.709-1.789-.028-.057-.048-.086-.077-.086s-.057.03-.076.1a17.2,17.2,0,0,0-.661,1.78" transform="translate(30.422 0.88)" fill="#fff"/><path d="M180.884,11.136c.058,0,.1.009.1.038a.184.184,0,0,1-.066.116,3.347,3.347,0,0,0-.392.43c-.067.106-.106.144-.279.144-.583,0-1.119-.422-1.731-1.3-.4-.583-.833-1.225-1.234-1.761a.2.2,0,0,0-.172-.1h-.259c-.066,0-.105.038-.105.086.066,2.172.124,2.784.144,2.927v.019a.107.107,0,0,1-.116.116c-.191-.009-.383-.028-.583-.028a2.653,2.653,0,0,0-.392.028h-.048c-.057,0-.077-.028-.077-.086V11.72a36.044,36.044,0,0,0,.144-3.932,12.489,12.489,0,0,0-.135-2.583.486.486,0,0,1-.018-.086c0-.058.038-.067.1-.067h.057c.191.009.335.019.5.019.221,0,.479-.009.977-.028h.191c1.082,0,2.344.383,2.344,1.75a1.656,1.656,0,0,1-1.369,1.7c-.067.019-.094.028-.094.058s1,1.521,1.013,1.53c.478.7.89,1.052,1.367,1.052Zm-3.473-5.329c-.459,0-.583.028-.6.154-.018.143-.057.6-.057.928,0,.257-.009.583-.009.928,0,.085.028.133.114.133s.172.009.249.009c1.148,0,1.646-.44,1.646-1.091,0-.756-.422-1.062-1.34-1.062" transform="translate(31.769 0.912)" fill="#fff"/><path d="M185.242,12.025c-2.066,0-3.942-1.2-3.942-3.626a3.635,3.635,0,0,1,3.788-3.5,5.331,5.331,0,0,1,1.569.24c.412.123.718.267.9.315.133.028.182.1.182.182a.405.405,0,0,1-.028.133,5.167,5.167,0,0,0-.2,1.024c-.02.077-.058.105-.106.105a.128.128,0,0,1-.115-.077A2.585,2.585,0,0,0,185.05,5.8a2.489,2.489,0,0,0-2.6,2.6,2.781,2.781,0,0,0,5.033,1.56.189.189,0,0,1,.152-.105c.067,0,.125.057.125.154,0,.019-.009.038-.009.057a6.552,6.552,0,0,0-.2,1.168c0,.162-.067.191-.191.268a4.551,4.551,0,0,1-2.115.525" transform="translate(32.789 0.886)" fill="#fff"/><path d="M194.835,11.87c-.086-.009-.364-.028-.621-.028a3.026,3.026,0,0,0-.307.009h-.047c-.078,0-.106-.019-.106-.1,0-.019.011-.039.011-.067.076-.583.113-2.038.124-2.477,0-.144.009-.211.009-.345,0-.182,0-.211-2.01-.211-1.769,0-1.789.011-1.789.268V9.3c.009.69.038,1.7.105,2.411v.039c0,.086-.028.124-.1.124h-.019c-.086-.009-.353-.028-.612-.028a3.024,3.024,0,0,0-.307.009h-.047c-.077,0-.106-.019-.106-.1v-.067a30.041,30.041,0,0,0,.136-3.071,22.721,22.721,0,0,0-.136-3.424A.718.718,0,0,1,189,5.076c0-.047.018-.067.076-.067h.02c.133.011.3.02.468.02s.365-.009.517-.02h.057c.078,0,.105.02.105.087v.038a17.673,17.673,0,0,0-.123,2.124v.267c0,.2.133.24,1.885.24s1.885-.038,1.885-.229v-.23a14.855,14.855,0,0,0-.135-2.114.445.445,0,0,1-.009-.106.067.067,0,0,1,.077-.077h.019c.135.011.3.02.47.02s.353-.009.505-.02h.058c.077,0,.105.02.105.087v.038c-.143,1.11-.143,3.6-.143,3.76,0,1.511.076,2.488.105,2.813v.039c0,.086-.03.124-.086.124Z" transform="translate(34.182 0.906)" fill="#fff"/><path d="M197.613,11.859c-.086-.009-.373-.028-.641-.028-.106,0-.22,0-.307.009h-.047c-.077,0-.106-.019-.106-.1v-.067c.02-.143.144-1.635.144-3.09A21.094,21.094,0,0,0,196.5,5.2a.432.432,0,0,1-.009-.105c0-.048.018-.077.076-.077h.02c.133.009.306.019.488.019s.364-.009.525-.019h.058c.076,0,.105.019.105.086v.039c-.143,1.1-.143,3.548-.143,3.749,0,.279,0,1.693.105,2.8v.039c0,.086-.03.124-.1.124Z" transform="translate(35.537 0.908)" fill="#fff"/><path d="M202.677,11.978a.269.269,0,0,0-.086-.009.927.927,0,0,0-.135.019c-.018,0-.028.011-.047.011-.048,0-.1-.02-.115-.106-.183-.831-2.728-6.668-2.737-6.687a.519.519,0,0,1-.047-.154c0-.038.019-.047.067-.047.019,0,.047.009.076.009a2.694,2.694,0,0,0,.4.028c.182,0,.364-.009.535-.019.153,0,.192,0,.221.115.1.383,1.645,4.774,1.742,4.774.066,0,1.416-3.874,1.645-4.765.02-.077.048-.154.154-.154.019,0,.038.011.058.011a2.824,2.824,0,0,0,.45.038A4.23,4.23,0,0,0,205.365,5a.173.173,0,0,1,.067-.011c.048,0,.068.02.068.048a.9.9,0,0,1-.058.154c-.508,1.157-2.249,5.453-2.593,6.668a.134.134,0,0,1-.135.115Z" transform="translate(36.083 0.903)" fill="#fff"/><path d="M210.858,10.855a4.42,4.42,0,0,0-.047.87c0,.115-.116.135-.269.135,0,0-1.186-.039-2.324-.039-.564,0-1.121.011-1.5.039H206.7c-.076,0-.181-.124-.181-.2v-.011a19.639,19.639,0,0,0,.163-3.243,21.679,21.679,0,0,0-.125-3.214V5.143c0-.058.009-.116.105-.116h.03a12.278,12.278,0,0,0,1.32.048c.975,0,2.037-.038,2.191-.048.038,0,.077-.008.115-.008.077,0,.124.019.124.124v.038a1.619,1.619,0,0,0-.008.2,4.593,4.593,0,0,0,.038.5v.047c0,.067-.019.086-.086.086h-.039c-.45-.047-1.568-.1-2.076-.1a3.382,3.382,0,0,0-.441.019c-.133.02-.191.03-.191,1.665,0,.105.048.133.4.133a11.392,11.392,0,0,0,1.664-.124c.02,0,.04-.009.058-.009.078,0,.1.048.1.125v.066c-.009.115-.018.268-.018.422a1.669,1.669,0,0,0,.018.306v.039a.1.1,0,0,1-.105.105h-.038a4.331,4.331,0,0,0-1.033-.105c-.23,0-.556-.011-.775-.011h-.154c-.086,0-.116.03-.116.125v.392c0,.507.011,1.3.03,1.656.019.248.048.267.775.267a8.693,8.693,0,0,0,2.287-.229.1.1,0,0,1,.048-.009.078.078,0,0,1,.076.086Z" transform="translate(37.351 0.908)" fill="#fff"/></g></svg>