<svg xmlns="http://www.w3.org/2000/svg" xmlns:xlink="http://www.w3.org/1999/xlink" width="257.098" height="55.122" viewBox="0 0 257.098 55.122"><defs><clipPath id="a"><rect width="257.098" height="55.122" fill="#fff"/></clipPath></defs><g transform="translate(0 0)"><g transform="translate(0 0)" clip-path="url(#a)"><path d="M42.143,17.944c0,.2-.062.265-1.107.265-.779,0-1.086-.061-1.086-.246.246-3.34.246-7.149.246-8.644-.02-1.619-.02-4.978-.165-8.092,0-.082.022-.185.145-.185h.02c1.6.123,5.962.165,7.7.165,1.9,0,6.023-.062,7.723-.206h.041c.164,0,.2.123.2.226-.1,2.622-.122,5.2-.122,6.884,0,1.167,0,4.629.226,9.545a.3.3,0,0,1-.246.307c-.287.022-.676.022-1.024.022-.779,0-.9-.041-.9-.288,0-.225.02-.471.02-.716-1.167-.022-4.466-.041-5.9-.041-1.353,0-4.4.019-5.8.041Zm11.779-8.5c0-1.27-.041-6.575-.041-6.575s-4.344-.042-5.982-.042-5.88.042-5.88.042S42,8.13,42,9.38c0,.636.062,3.2.1,5.9,1.373.02,4.445.061,5.8.061,1.454,0,4.815-.041,5.96-.061.042-2.54.062-5.245.062-5.84M49.087,5.918c0,.061-.041.142-.164.2-.123.082-.164.123-.164.329,0,.43-.02.942-.02,1.475.86-.022,1.515-.1,2.745-.184.1,0,.164.061.184.184.022.142.022.511.022.84a4.419,4.419,0,0,1-.022.594.18.18,0,0,1-.184.123c-1.147-.082-1.884-.145-2.745-.164,0,1.085,0,2.171.02,2.949,1.065-.02,1.926-.061,3.851-.184.184,0,.266.02.266.9a7.105,7.105,0,0,1-.042.779.2.2,0,0,1-.2.122c-2.294-.164-3.278-.164-4.712-.164-1.331,0-2.213,0-4.528.164-.225,0-.266,0-.266-.859,0-.882.022-.943.266-.943,1.844.123,2.746.164,3.688.184.02-.9.041-1.9.041-2.949-.8.019-1.557.081-2.683.164-.206,0-.246-.02-.246-.82,0-.818.041-.9.184-.9h.062c1.105.082,1.863.142,2.662.164,0-.7,0-1.393-.02-2.048-.86.019-1.638.061-3.36.183-.225,0-.265,0-.265-.839,0-.881.041-.9.265-.9,2.294.145,2.93.185,4.2.185,1.5,0,1.987-.041,4.322-.185.206,0,.226.022.226,1a5.07,5.07,0,0,1-.02.615.206.206,0,0,1-.206.122c-1.535-.1-2.335-.142-3.155-.164ZM51.32,12a.153.153,0,0,1-.082-.041,6.483,6.483,0,0,0-1.844-1.086c-.1-.019-.164-.061-.164-.122,0-.082.656-1.209.82-1.209.307,0,2.09.615,2.09.923a6.458,6.458,0,0,1-.656,1.434.209.209,0,0,1-.164.1" transform="translate(10.746 0.27)" fill="#fff"/><path d="M78.145,15.414c.184,0,.266.062.266,1.025,0,.879-.022,1.023-.246,1.023-4.056-.164-6.147-.184-8.5-.184-2.171,0-4.323.02-8.175.184-.246,0-.266-.019-.266-.982,0-1.066.043-1.066.266-1.066,2.5.164,4.2.2,5.655.2.881,0,1.681-.02,2.5-.02a44.545,44.545,0,0,0,2.705-8.83c.02-.122.081-.246.225-.246s2.582.7,2.582,1.23c0,.165-.227.307-.452.533a1.675,1.675,0,0,0-.429.676c-.492,1.27-1.62,4.138-2.643,6.637,1.679-.02,3.441-.061,6.515-.184M70.79,4.311c1.638,0,2.5-.041,6.023-.185.185,0,.266.062.266,1.025,0,.881-.02,1.024-.246,1.024-4.056-.164-4.814-.184-7.17-.184-2.171,0-3.2.02-7.048.184-.246,0-.265-.02-.265-.983,0-1.066.042-1.066.265-1.066,2.458.165,3.728.207,4.836.207.429,0,.86-.022,1.31-.022V3.245A14.534,14.534,0,0,0,68.536.788a.367.367,0,0,1-.02-.123c0-.062.02-.084.1-.084a15.019,15.019,0,0,1,2.459.431c.2.061.287.164.287.287,0,.266-.329.634-.429,1a3.3,3.3,0,0,0-.145.963Zm-3.954,10.2a.2.2,0,0,1-.206-.185A21.971,21.971,0,0,0,64.42,7.855a.121.121,0,0,1-.022-.082.257.257,0,0,1,.122-.225,10.2,10.2,0,0,1,1.518-.492c.716,0,2.787,6.023,2.787,6.556,0,.41-1.948.9-1.988.9" transform="translate(16.467 0.157)" fill="#fff"/><path d="M84.1,11.408a8.915,8.915,0,0,0-1.99-.881c-.081-.042-.142-.061-.142-.1,0-.022.041-.042.1-.082A11.555,11.555,0,0,0,87.7,3.992a.1.1,0,0,1,.1-.081c.165,0,2.378.778,2.378,1.126,0,.123-.143.246-.349.349a1.433,1.433,0,0,0-.615.471c-2.561,4.221-4.712,5.614-4.936,5.614a.326.326,0,0,1-.183-.062m1.741,6.063c-.31.062-.492.288-.657.288-.39,0-1.311-2.131-1.311-2.315,0-.042.02-.082.266-.082h.226a33.47,33.47,0,0,0,3.5-.266,30.339,30.339,0,0,0,1.843-7.333c.022-.124.022-.165.062-.165.183,0,2.889.717,2.889,1.128,0,.223-.33.471-.513.614a1.585,1.585,0,0,0-.513.737l-1.618,4.732c1.761-.246,3.481-.532,4.731-.737-.614-.758-1.127-1.312-1.27-1.475a.287.287,0,0,1-.06-.145,4,4,0,0,1,1.433-1.065c.226,0,4.3,4.568,4.3,5.039,0,.307-1.495,1.311-1.741,1.311-.081,0-.143-.061-.225-.2a17.732,17.732,0,0,0-1.312-2.008ZM88.909,1.308c1.063.1,1.967.165,2.888.165.759,0,1.537-.042,2.458-.1.042,0,.082-.022.123-.022.062,0,.122.062.164.307a10.514,10.514,0,0,0,6.577,7.621c.082.041.143.082.143.145s-.061.122-.165.162A7,7,0,0,0,99.09,10.63a.2.2,0,0,1-.185.081,14.015,14.015,0,0,1-6.083-7.5c-.329-.022-.655-.022-.963-.022-1.105,0-2.028.1-2.949.145-.164,0-.206-.042-.206-1.415,0-.614.022-.614.123-.614Z" transform="translate(22.047 0.352)" fill="#fff"/><path d="M112.39,3.6a17.954,17.954,0,0,0-.184-3.073.357.357,0,0,1-.02-.122c0-.062.02-.082.1-.082.2,0,2.622.226,2.622.656,0,.245-.327.594-.43.963a17.618,17.618,0,0,0-.143,2.376c1.434-.02,4.221-.061,7.007-.206.245,0,.266.145.266,1.167a6.1,6.1,0,0,1-.022.678c0,.1-.123.164-.245.164-1.435-.082-2.889-.123-4.16-.143.84.307.86.513.86.572,0,.165-.245.329-.511.492a2.151,2.151,0,0,0-.615,1.107,14.826,14.826,0,0,1-2.416,4.322,12.838,12.838,0,0,0,7.641,3.77c.123.02.226.041.226.082s-.062.1-.206.2a8.349,8.349,0,0,0-1.8,1.537.238.238,0,0,1-.226.122,15.917,15.917,0,0,1-6.8-4.363,16.359,16.359,0,0,1-7.273,4.507c-.123,0-.226-.022-.266-.1a5.258,5.258,0,0,0-1.618-1.434c-.143-.1-.2-.164-.2-.2s.1-.042.225-.062a13.277,13.277,0,0,0,8.01-4.057,14.477,14.477,0,0,1-2.068-3.851,13.106,13.106,0,0,0-.82,1.25c-.061.184-.02.39-.184.39a3.774,3.774,0,0,1-1.7-1.107.233.233,0,0,1,.061-.143,10.3,10.3,0,0,0,2.561-3.052c-1.351.02-2.991.081-4.65.164-.206,0-.266-.061-.266-1.005,0-.921,0-1,.164-1h.1c2.827.145,5.572.185,6.984.206Zm-1.351,2.335c.369.165.614.307.614.492a.369.369,0,0,1-.081.184.486.486,0,0,0-.123.369,1.254,1.254,0,0,0,.02.265,13.84,13.84,0,0,0,1.884,3.832,11.033,11.033,0,0,0,2.11-5.143Z" transform="translate(27.966 0.088)" fill="#fff"/><path d="M140.977,7.58c0,.2-.246.287-1.127.287-.41,0-.778-.02-.778-.287V7.539h-3.114v.982c1.577,0,2.438,0,5.756-.142.165,0,.226.02.226.7a4.163,4.163,0,0,1-.041.572c0,.084-.062.124-.165.124-3.2-.124-4.241-.165-5.756-.165v.943c2.068,0,4.364,0,7.887-.164.206,0,.226.164.226.778a4.944,4.944,0,0,1-.042.634c0,.082-.061.123-.184.123-3.912-.164-6.6-.164-8.747-.164-3.627,0-5.511.022-8.563.164-.143,0-.206-.041-.226-.164,0-.142-.02-.388-.02-.614,0-.758,0-.758.246-.758,3.544.164,5.592.164,7.62.164l.02-.943c-1.577,0-2.581.022-5.879.165-.143,0-.164-.041-.184-.143,0-.123-.02-.329-.02-.553,0-.7.02-.7.225-.7,3.34.142,4.261.142,5.859.142V7.539c-1.188.02-2.5.082-5.306.164-.081,0-.081-.041-.1-.164,0-.143-.022-.348-.022-.553,0-.717.042-.717.206-.717,2.929.164,4.056.164,5.223.164V5.491c-2.008,0-4.158,0-7.681.142-.145,0-.226-.02-.246-.142,0-.143-.02-.369-.02-.6,0-.737,0-.737.266-.737,3.565.143,5.653.164,7.681.164V3.339c-.942.02-2.662.042-5.243.145-.185,0-.185-.1-.185-.923,0-.513.082-.513.226-.513,2.622.124,4.261.143,5.183.143-.041-.778-.122-1.351-.2-1.986V.1c0-.082.02-.1.143-.1h.1c.553,0,2.316.225,2.316.594a1.033,1.033,0,0,1-.266.513c-.226.327-.266.348-.287,1.085,1.393,0,3.789-.041,4.835-.143h.062c.081,0,.1.022.1.1v.1a13.734,13.734,0,0,0-.123,2.008c.983-.022,2.049-.062,3.237-.1.2,0,.2.081.2.778a4.541,4.541,0,0,1-.041.6c0,.081-.041.123-.164.123-1.167-.042-2.233-.082-3.216-.1.02.7.061,1.373.1,2.008Zm-.206,10.8c0,.143-.041.226-1.105.226-.8,0-.86-.1-.86-.226v-.02l.02-.266c-.86,0-3.175-.042-3.708-.042-.553,0-2.91.042-3.688.042,0,.143.02.266.02.41,0,.266-.041.286-1,.286-.881,0-.942-.06-.942-.245v-.081c.142-1.292.162-2.623.162-3.094,0-.881,0-1.64-.081-2.561,0-.082-.02-.123-.02-.164s.02-.062.143-.062h.143c.86.062,4.2.082,5.306.082,1.086,0,3.995-.041,5.326-.1h.062c.143,0,.2.062.2.185V12.8c-.1,1.311-.1,2.171-.1,2.643,0,.429,0,1.454.122,2.785Zm-1.883-4.528s-3.073-.02-3.79-.02-3.667.02-3.667.02-.02.431-.02.86c.758,0,3.2.02,3.688.02s3.032-.02,3.811-.02c0-.41-.02-.86-.02-.86m-7.478,2.888c.758,0,3.2.041,3.688.041.471,0,2.949-.041,3.769-.041.022-.327.022-.614.022-.86-.779,0-3.217-.041-3.77-.041s-2.95.041-3.708.041Zm7.743-13.4h-3.2v.983c.963,0,2.008,0,3.2-.02Zm-3.2,3.094c2.581,0,3.032-.02,3.175-.02.02-.307.02-.614.02-.9-1.208-.019-2.254-.019-3.2-.019Z" transform="translate(33.958 0.001)" fill="#fff"/><path d="M163.65,18.005c0-.206.02-.43.02-.636-.43-.02-1.393-.02-1.844-.02s-1.475,0-1.926.02v.739c0,.286-.041.306-.921.306-.82,0-.921,0-.921-.246v-.081c.142-1.291.142-7.929.142-8.379,0-.778,0-2.294-.061-3.236-.206,0-.41.019-.614.019-.574,0-.82-.019-.82-.183V6.266a16.2,16.2,0,0,0,.164-1.619v-.2a5.252,5.252,0,0,0-1.188.676.277.277,0,0,1-.143.061,7.207,7.207,0,0,1-2.213-2.438,17.155,17.155,0,0,1-2.684,3.381c.555.041,1.332.082,1.947.1a7.721,7.721,0,0,0-.246-1.8V4.381c0-.1.081-.143.206-.143a14.7,14.7,0,0,1,1.987.266c.143.019.184.081.184.164,0,.164-.184.388-.286.594a1.611,1.611,0,0,0-.226.962l2.008-.1h.061c.143,0,.184.061.184.2v.062c-.081,1.127-.1,1.8-.1,2.294,0,.369,0,1.822.143,3.708v.143c0,.266-.409.266-1.167.266-.552,0-.593-.022-.593-.307l.019-.226c-.45-.02-1.167-.02-1.414-.02-.225,0-.839,0-1.291.02V15.4c.779-.246,1.537-.532,2.131-.737-.266-.287-.533-.513-.655-.656-.042-.061-.082-.1-.082-.142a4.165,4.165,0,0,1,1.189-.739A11.251,11.251,0,0,1,157.3,16a.183.183,0,0,1,.062.123c0,.185-.963.8-1.25.963a.156.156,0,0,1-.1.041.154.154,0,0,1-.143-.1,6.781,6.781,0,0,0-.7-1.167c-.7.266-4.323,1.7-4.938,1.926-.288.1-.39.369-.574.369a3.757,3.757,0,0,1-1.373-1.66c0-.082.122-.062.246-.1.511-.1,1.127-.246,1.8-.45.022-1.434.062-6.495.062-6.924,0-.615,0-1.046-.083-2.582l-.02.02a.385.385,0,0,1-.266.1.235.235,0,0,1-.164-.062,5.4,5.4,0,0,0-1.434-.675c-.062-.041-.1-.081-.1-.123,0-.02.022-.061.081-.1A12.56,12.56,0,0,0,152.669.345c.019-.081.061-.1.143-.1.287,0,1.864.369,1.864.678,0,.143-.349.409-.452.449a11.234,11.234,0,0,0,2.643,2.52c0-.225-.02-.471-.041-.778V3.029c0-.1.02-.123.123-.123h.081c1.5.123,2.766.143,3.606.143v-.41a11.289,11.289,0,0,0-.226-2.19V.406c0-.1.042-.122.123-.122h.061a12.962,12.962,0,0,1,2.151.348c.143.041.206.124.206.226a1.853,1.853,0,0,1-.307.655A2.046,2.046,0,0,0,162.38,2.7l-.02.327c1,0,2.417-.02,3.914-.123.142,0,.142.062.142.185-.02.574-.02,1.291-.02,1.6A11.3,11.3,0,0,0,166.477,6v.041c0,.081-.042.164-.882.164-.286,0-.574,0-.758-.022V6.2c-.082,1.27-.1,1.6-.1,2.068,0,.41.019,1.393.122,2.7v.143c0,.225-.533.225-1.044.225-.737,0-.778-.122-.778-.225v-.042c0-.1.019-.2.019-.307-.429,0-.942-.019-1.249-.019-.45,0-1.475,0-1.926.019v1.5c.594,0,1.393.022,1.967.022.983,0,2.152-.042,3.4-.1h.062c.142,0,.183.041.183.162v.062c-.1,1.311-.1,2.171-.1,2.664,0,.43.02,1.475.123,2.826,0,.062.02.123.02.164,0,.1-.042.206-1.086.206-.675,0-.8-.02-.8-.225ZM154.78,7.433s-1.046-.041-1.435-.041-1.291.041-1.291.041-.02.634-.02,1.189c.472.02,1.147.02,1.351.02.226,0,.985-.02,1.415-.042,0-.491-.02-1.167-.02-1.167m-2.726,3.627c.452.019,1.086.019,1.291.019.226,0,.983,0,1.435-.019,0-.452.02-.9.02-1.251-.43-.019-1.148-.019-1.393-.019-.226,0-.923,0-1.373.019Zm11.043-6.6c-.717,0-1.353.019-1.761.019-.431,0-.821-.019-1.311-.019-.369,0-.8.019-1.373.041,0,.43,0,.84.041,1.515.818.041,1.987.062,2.868.062.962,0,1.783-.022,2.991-.081.022-.739.082-1.169.082-1.5-.533-.041-1.046-.041-1.537-.041m-.02,3.666c0-.388-.022-.7-.022-.7s-.881-.02-1.537-.02-1.618.02-1.618.02-.02,1.25-.02,1.947c.472.02,1.516.02,1.9.02.266,0,.841-.02,1.292-.02Zm.634,6.781c0-.41-.02-1.25-.02-1.25s-1.228-.02-1.884-.02c-.39,0-1.27.02-1.926.02v2.274c.472,0,1.537.02,1.926.02.409,0,1.456-.02,1.9-.02Z" transform="translate(39.886 0.066)" fill="#fff"/><path d="M.35,46.983c-.2,0-.35-.075-.35-.352,0-.049.025-.1.025-.15A47.693,47.693,0,0,0,.45,39.353c0-2.327,0-8.006-.376-9.506a2.43,2.43,0,0,1-.049-.275c0-.226.124-.275.3-.275.075,0,.174.025.274.025a6.341,6.341,0,0,0,.676.024c1.525,0,3.377-.3,5.278-.3,5.4,0,10.283,2.751,10.283,8.88,0,4.9-3.677,9.081-10.057,9.081-1.251,0-2.326-.074-3.353-.124-.325-.025-.626-.025-.926-.025a17.949,17.949,0,0,0-2,.126ZM6.3,31.372a20.289,20.289,0,0,0-2.8.3c-.476.076-.525.2-.525,7.481,0,3.028.075,4.078.1,4.478.051.725.3.9,3.327.9a14.571,14.571,0,0,0,2.076-.126c3-.6,5.4-2.6,5.4-6.379,0-6.5-6.105-6.655-7.355-6.655Z" transform="translate(0 7.813)" fill="#fff"/><path d="M21.008,46.934c-.225-.025-.976-.076-1.676-.076a7.931,7.931,0,0,0-.8.025h-.124c-.2,0-.275-.049-.275-.25v-.175c.049-.376.376-4.278.376-8.08,0-6.355-.3-8.332-.4-8.857a1.1,1.1,0,0,1-.025-.274c0-.126.051-.2.2-.2h.049c.35.025.8.049,1.275.049s.952-.024,1.376-.049h.151c.2,0,.274.049.274.225v.1c-.374,2.878-.374,9.283-.374,9.808,0,.725,0,4.427.275,7.33v.1c0,.226-.075.326-.25.326Z" transform="translate(4.863 7.813)" fill="#fff"/><path d="M39.875,38.785A10.415,10.415,0,0,0,41.9,38.61a1.479,1.479,0,0,1,.3-.024c.176,0,.3.049.3.225a.883.883,0,0,1-.075.3,17.871,17.871,0,0,0-.275,3.7c0,.775.025,1.45.049,1.777.051.45.126.75.126.95,0,.226-.075.35-.376.5a17.4,17.4,0,0,1-6.228,1.25c-5.229,0-10.208-3.077-10.208-9.38,0-4.9,4.2-9.082,9.807-9.082a16,16,0,0,1,4.153.624c.75.2,1.726.577,2.3.676.424.1.549.225.549.426a2.522,2.522,0,0,1-.1.5,11.811,11.811,0,0,0-.376,2.652.3.3,0,0,1-.326.3.316.316,0,0,1-.275-.15c-1.126-1.525-3.176-2.676-6.2-2.676a6.249,6.249,0,0,0-6.6,6.655c0,4.2,2.826,7.08,7.5,7.08,2.8,0,3.577-1.226,3.652-1.925.025-.275.051-.577.051-.9a8.7,8.7,0,0,0-.4-2.752.648.648,0,0,1-.049-.275c0-.225.15-.275.35-.275Z" transform="translate(6.863 7.755)" fill="#fff"/><path d="M47.537,46.934c-.223-.025-.976-.076-1.675-.076a7.97,7.97,0,0,0-.8.025h-.123c-.2,0-.275-.049-.275-.25v-.175c.048-.376.374-4.278.374-8.08,0-6.355-.3-8.332-.4-8.857a1.1,1.1,0,0,1-.025-.274c0-.126.051-.2.2-.2h.048c.35.025.8.049,1.275.049s.952-.024,1.376-.049h.151c.2,0,.274.049.274.225v.1c-.373,2.878-.373,9.283-.373,9.808,0,.725,0,4.427.274,7.33v.1c0,.226-.074.326-.249.326Z" transform="translate(11.999 7.813)" fill="#fff"/><path d="M61.512,47a11.522,11.522,0,0,0-1.576-.126A4.809,4.809,0,0,0,58.685,47a.312.312,0,0,1-.15.025c-.1,0-.175-.051-.175-.226v-.1a95.342,95.342,0,0,0,.45-9.882V35.337c0-.374-.025-2.7-.126-3.4-.075-.575-.2-.626-1.426-.626a32.229,32.229,0,0,0-4.878.4h-.075a.264.264,0,0,1-.3-.3.507.507,0,0,1,.024-.175,16.438,16.438,0,0,0,.326-1.876c.024-.251.1-.352.3-.352.025,0,.1.025.151.025a23.891,23.891,0,0,0,2.8.225c1.551.025,3.152.051,4.7.051a51.169,51.169,0,0,0,7.755-.4h.1c.15,0,.225.1.225.25v.076c-.05.525-.15,1.15-.15,1.726,0,.126.025.251.025.376v.049c0,.251-.124.275-.275.275h-.175a41.582,41.582,0,0,0-5.029-.325h-.575c-.551,0-.6.225-.626.6-.024.25-.124,2.3-.124,4.353,0,1.151.024,2.277.024,3.927,0,1.3.076,3.978.35,6.454v.051a.275.275,0,0,1-.274.275Z" transform="translate(13.989 7.776)" fill="#fff"/><path d="M82.859,47.034a7.83,7.83,0,0,0-1.1-.051c-.525,0-1.025.025-1.45.051-.1,0-.175.024-.25.024-.2,0-.326-.075-.4-.35a19.1,19.1,0,0,0-.95-2.877c-.4-1-.826-1.926-1.076-2.527-.124-.35-.775-.4-2.777-.4-2.952,0-3.052.075-3.227.576-.425,1.225-1.277,3.2-1.8,5.2-.049.2-.1.4-.4.4-.049,0-.1-.025-.15-.025a8.531,8.531,0,0,0-1.251-.1,13.33,13.33,0,0,0-1.4.1c-.075,0-.126.025-.2.025-.124,0-.2-.049-.2-.151a.927.927,0,0,1,.151-.374,67.843,67.843,0,0,0,3.077-6.28c3.9-9.13,4.353-10.157,4.453-10.982.025-.2.124-.3.4-.3a1.669,1.669,0,0,0,.65-.275.581.581,0,0,1,.175-.051c.175,0,.3.15.35.35a141.269,141.269,0,0,0,7.581,17.386,1.183,1.183,0,0,1,.15.45c0,.126-.075.176-.251.176ZM72.777,38.6a.247.247,0,0,0,.25.2c.275.025.751.025,1.251.025.8,0,1.726-.025,2.277-.049a.193.193,0,0,0,.2-.175c0-.275-1.751-4.454-1.851-4.68-.075-.15-.124-.223-.2-.223s-.151.074-.2.25A43.481,43.481,0,0,0,72.777,38.6" transform="translate(17.812 7.713)" fill="#fff"/><path d="M94.586,44.305a10.313,10.313,0,0,0-.1,2.277c0,.3-.325.35-.725.35,0,0-2.8-.1-5.58-.1-1.376,0-2.751.025-3.752.1H84.4c-.2,0-.475-.326-.475-.525v-.024a51.315,51.315,0,0,0,.425-8.482,56.925,56.925,0,0,0-.325-8.406V29.37c0-.15.024-.3.274-.3h.076a8.4,8.4,0,0,0,1.15.075,7.669,7.669,0,0,0,1.151-.075,1.267,1.267,0,0,1,.3-.024c.2,0,.325.074.325.324v.1c-.25,1.976-.35,7.379-.35,9.882,0,1.551.025,3.076.1,4.6.049.626.049.7,1.726.7a21.236,21.236,0,0,0,5.479-.6.264.264,0,0,1,.124-.025.2.2,0,0,1,.2.226Z" transform="translate(22.575 7.813)" fill="#fff"/><path d="M117.858,47.034a7.83,7.83,0,0,0-1.1-.051c-.525,0-1.025.025-1.45.051-.1,0-.175.024-.25.024-.2,0-.326-.075-.4-.35a19.1,19.1,0,0,0-.95-2.877c-.4-1-.826-1.926-1.076-2.527-.124-.35-.775-.4-2.777-.4-2.952,0-3.052.075-3.227.576-.425,1.225-1.277,3.2-1.8,5.2-.049.2-.1.4-.4.4-.049,0-.1-.025-.15-.025a8.531,8.531,0,0,0-1.251-.1,13.331,13.331,0,0,0-1.4.1c-.075,0-.126.025-.2.025-.124,0-.2-.049-.2-.151a.927.927,0,0,1,.151-.374,67.838,67.838,0,0,0,3.077-6.28c3.9-9.13,4.353-10.157,4.453-10.982.025-.2.124-.3.4-.3a1.669,1.669,0,0,0,.65-.275.581.581,0,0,1,.175-.051c.175,0,.3.15.35.35a141.27,141.27,0,0,0,7.581,17.386,1.183,1.183,0,0,1,.15.45c0,.126-.075.176-.251.176ZM107.776,38.6a.247.247,0,0,0,.25.2c.275.025.751.025,1.251.025.8,0,1.726-.025,2.277-.049a.193.193,0,0,0,.2-.175c0-.275-1.751-4.454-1.851-4.68-.075-.15-.124-.223-.2-.223s-.151.074-.2.25a43.481,43.481,0,0,0-1.726,4.653" transform="translate(27.226 7.713)" fill="#fff"/><path d="M132.586,45.041c.15,0,.251.025.251.1a.481.481,0,0,1-.176.3,8.648,8.648,0,0,0-1.025,1.126c-.175.274-.275.374-.726.374-1.525,0-2.926-1.1-4.528-3.4-1.051-1.525-2.176-3.2-3.227-4.6a.526.526,0,0,0-.451-.25h-.675c-.175,0-.275.1-.275.225.175,5.679.325,7.28.376,7.656v.049a.277.277,0,0,1-.3.3c-.5-.025-1-.076-1.525-.076a7.24,7.24,0,0,0-1.027.076h-.124c-.15,0-.2-.076-.2-.226v-.124a94.862,94.862,0,0,0,.376-10.283,32.98,32.98,0,0,0-.35-6.755,1.212,1.212,0,0,1-.049-.225c0-.15.1-.176.249-.176h.151c.5.027.876.051,1.3.051.576,0,1.251-.024,2.552-.075h.5c2.827,0,6.129,1,6.129,4.578,0,1.651-.626,3.6-3.577,4.453-.175.049-.25.076-.25.15,0,.1,2.627,3.978,2.652,4,1.25,1.826,2.326,2.751,3.577,2.751Zm-9.081-13.935c-1.2,0-1.527.076-1.576.4-.049.376-.15,1.577-.15,2.428,0,.675-.025,1.527-.025,2.428,0,.223.075.349.3.349s.451.025.651.025c3,0,4.3-1.151,4.3-2.853,0-1.976-1.1-2.777-3.5-2.777" transform="translate(31.989 7.829)" fill="#fff"/><path d="M142.966,47.389c-5.4,0-10.307-3.128-10.307-9.484,0-4.953,4.252-9.154,9.907-9.154a13.989,13.989,0,0,1,4.1.626c1.076.326,1.876.7,2.351.826.35.075.476.249.476.473a.978.978,0,0,1-.075.35A13.393,13.393,0,0,0,148.9,33.7c-.051.2-.15.275-.275.275a.331.331,0,0,1-.3-.2c-.876-1.549-3.2-2.675-5.854-2.675a6.508,6.508,0,0,0-6.8,6.8c0,4.655,3.526,7.081,7.554,7.081a7.016,7.016,0,0,0,5.6-3,.5.5,0,0,1,.4-.275.356.356,0,0,1,.326.4c0,.049-.027.1-.027.15a17,17,0,0,0-.525,3.052c0,.424-.175.5-.5.7a11.861,11.861,0,0,1-5.529,1.378" transform="translate(35.682 7.734)" fill="#fff"/><path d="M166.679,46.963c-.226-.025-.952-.076-1.627-.076a7.319,7.319,0,0,0-.8.027h-.126c-.2,0-.275-.051-.275-.25,0-.051.027-.1.027-.176.2-1.525.3-5.328.325-6.478,0-.376.024-.551.024-.9,0-.476,0-.551-5.252-.551-4.629,0-4.679.025-4.679.7v.975c.025,1.8.1,4.454.275,6.306v.1c0,.226-.076.326-.25.326h-.049c-.226-.025-.926-.076-1.6-.076a7.307,7.307,0,0,0-.8.027h-.126c-.2,0-.274-.051-.274-.25v-.176a79.927,79.927,0,0,0,.349-8.03,60.373,60.373,0,0,0-.349-8.956,1.683,1.683,0,0,1-.051-.3c0-.126.051-.176.2-.176h.049c.35.027.775.051,1.226.051.476,0,.95-.024,1.35-.051h.151c.2,0,.275.051.275.226v.1a46.35,46.35,0,0,0-.326,5.554v.7c0,.525.352.624,4.929.624s4.929-.1,4.929-.6v-.6a38.386,38.386,0,0,0-.352-5.53,1.161,1.161,0,0,1-.024-.275c0-.124.051-.2.2-.2h.049c.352.027.777.051,1.226.051s.926-.024,1.326-.051h.15c.2,0,.275.051.275.226v.1c-.374,2.9-.374,9.406-.374,9.832,0,3.952.2,6.5.275,7.355v.1c0,.226-.076.326-.226.326Z" transform="translate(40.728 7.808)" fill="#fff"/><path d="M172.612,46.934c-.226-.025-.976-.076-1.675-.076a7.919,7.919,0,0,0-.8.025h-.126c-.2,0-.275-.049-.275-.25v-.175c.05-.376.374-4.278.374-8.08,0-6.355-.3-8.332-.4-8.857a1.1,1.1,0,0,1-.025-.274c0-.126.051-.2.2-.2h.049c.35.025.8.049,1.275.049s.952-.024,1.376-.049h.151c.2,0,.274.049.274.225v.1c-.374,2.878-.374,9.283-.374,9.808,0,.725,0,4.427.274,7.33v.1c0,.226-.074.326-.249.326Z" transform="translate(45.641 7.813)" fill="#fff"/><path d="M185.33,47.249a.688.688,0,0,0-.226-.025,2.313,2.313,0,0,0-.35.051c-.049,0-.075.024-.126.024-.123,0-.249-.049-.3-.275-.475-2.176-7.129-17.436-7.155-17.487a1.336,1.336,0,0,1-.124-.4c0-.1.049-.126.174-.126.049,0,.126.024.2.024a6.828,6.828,0,0,0,1.051.076c.476,0,.952-.025,1.4-.049.4,0,.5,0,.575.3.251,1,4.3,12.483,4.553,12.483.176,0,3.7-10.13,4.3-12.458.049-.2.123-.4.4-.4.049,0,.1.025.15.025a7.287,7.287,0,0,0,1.175.1,10.811,10.811,0,0,0,1.326-.1.489.489,0,0,1,.176-.025c.124,0,.174.049.174.126a2.123,2.123,0,0,1-.15.4c-1.326,3.028-5.879,14.261-6.78,17.438a.351.351,0,0,1-.35.3Z" transform="translate(47.623 7.797)" fill="#fff"/><path d="M205,44.305a11.73,11.73,0,0,0-.126,2.277c0,.3-.3.35-.7.35,0,0-3.1-.1-6.08-.1-1.476,0-2.928.025-3.927.1h-.025c-.2,0-.476-.326-.476-.525v-.024A51.175,51.175,0,0,0,194.1,37.9a56.742,56.742,0,0,0-.325-8.406V29.37c0-.15.025-.3.275-.3h.075a32.662,32.662,0,0,0,3.453.126c2.551,0,5.328-.1,5.728-.126.1,0,.2-.024.3-.024.2,0,.325.049.325.324v.1A3.814,3.814,0,0,0,203.9,30a11.964,11.964,0,0,0,.1,1.3v.124c0,.175-.049.225-.225.225h-.1c-1.176-.124-4.1-.25-5.429-.25a8.515,8.515,0,0,0-1.15.051c-.352.049-.5.075-.5,4.353,0,.275.126.35,1.051.35A30.148,30.148,0,0,0,202,35.825c.049,0,.1-.025.15-.025.2,0,.249.126.249.326V36.3c-.024.3-.049.7-.049,1.1a4.073,4.073,0,0,0,.049.8v.1a.25.25,0,0,1-.275.274h-.1a11.4,11.4,0,0,0-2.7-.274c-.6,0-1.449-.025-2.025-.025h-.4c-.223,0-.3.075-.3.325v1.025c0,1.326.025,3.4.076,4.328.049.65.123.7,2.025.7a22.7,22.7,0,0,0,5.979-.6.264.264,0,0,1,.124-.025.2.2,0,0,1,.2.226Z" transform="translate(52.093 7.813)" fill="#fff"/></g></g></svg>