<svg xmlns="http://www.w3.org/2000/svg" width="8.41" height="10.704" viewBox="0 0 8.41 10.704"><path d="M13.923,4.934a.382.382,0,0,1,.112.27v7.367a.382.382,0,0,1-.382.382H6.007a.382.382,0,0,1-.382-.382V2.632a.382.382,0,0,1,.382-.382h5.074a.384.384,0,0,1,.271.112l2.571,2.572Zm-.769.446L10.905,3.132V5.38ZM11.278,9.1a3.789,3.789,0,0,0-.593.035,1.491,1.491,0,0,1-.625-.786l.013-.052.015-.062a2.911,2.911,0,0,0,.087-.534,1.307,1.307,0,0,0-.022-.334.408.408,0,0,0-.394-.36.383.383,0,0,0-.4.255,2.426,2.426,0,0,0,.12,1.178A13.948,13.948,0,0,1,8.87,9.723a3.309,3.309,0,0,0-.549.34.874.874,0,0,0-.35.481.364.364,0,0,0,.064.262.359.359,0,0,0,.273.164c.289.022.643-.275,1.035-.947l.132-.044.142-.048.22-.073a4.853,4.853,0,0,1,.683-.181,2.344,2.344,0,0,0,.981.3.4.4,0,0,0,.412-.287.45.45,0,0,0-.089-.431A.825.825,0,0,0,11.278,9.1ZM8.316,10.633v0l0,0a.655.655,0,0,1,.067-.129,1.627,1.627,0,0,1,.209-.249c.047-.047.1-.093.153-.145l.11-.1.133-.124-.1.154a2.783,2.783,0,0,1-.394.514.742.742,0,0,1-.109.09.2.2,0,0,1-.031.017l-.014,0a.026.026,0,0,1-.013,0A.025.025,0,0,1,8.316,10.633Zm1.5-2.608-.027.048L9.776,8.02A1.97,1.97,0,0,1,9.7,7.566c-.009-.182.006-.291.063-.291.081,0,.117.129.12.323a1.014,1.014,0,0,1-.068.426Zm-.069.7.018-.048.025.045a1.905,1.905,0,0,0,.52.613l.043.032-.052.011a3.528,3.528,0,0,0-.625.2c.026-.011-.258.106-.33.133l-.063.024.033-.058a6.648,6.648,0,0,0,.431-.953Zm1.883.911c-.094.037-.3,0-.652-.148l-.09-.038.1-.007a1.553,1.553,0,0,1,.59.037.175.175,0,0,1,.1.066.055.055,0,0,1-.016.075A.08.08,0,0,1,11.634,9.634Z" transform="translate(-5.625 -2.25)" fill="red"/></svg>