<svg xmlns="http://www.w3.org/2000/svg" width="25.001" height="25" viewBox="0 0 25.001 25"><path d="M-1841.123,16670h-18.751a3.129,3.129,0,0,1-3.125-3.125v-18.75a3.129,3.129,0,0,1,3.125-3.125h18.751a3.129,3.129,0,0,1,3.125,3.125v18.75A3.129,3.129,0,0,1-1841.123,16670Zm-14.174-18.021a.75.75,0,0,0-.749.748v9.5a.75.75,0,0,0,.749.75.75.75,0,0,0,.749-.75v-9.5A.75.75,0,0,0-1855.3,16651.979Zm7.271.051a.773.773,0,0,0-.552.229l-4.69,4.689a.788.788,0,0,0-.23.553.788.788,0,0,0,.23.553l4.69,4.689a.773.773,0,0,0,.552.229.773.773,0,0,0,.552-.229.78.78,0,0,0,.229-.553.78.78,0,0,0-.229-.557l-3.355-3.35h9.053a.782.782,0,0,0,.778-.783.782.782,0,0,0-.778-.783h-9.053l3.355-3.35a.78.78,0,0,0,.229-.557.78.78,0,0,0-.229-.553A.773.773,0,0,0-1848.026,16652.029Z" transform="translate(1862.999 -16645)" fill="#108854"/></svg>