<svg xmlns="http://www.w3.org/2000/svg" width="25.001" height="25" viewBox="0 0 25.001 25"><path d="M-1841.123,16670h-18.751a3.129,3.129,0,0,1-3.125-3.125v-18.75a3.129,3.129,0,0,1,3.125-3.125h18.751a3.129,3.129,0,0,1,3.125,3.125v18.75A3.129,3.129,0,0,1-1841.123,16670Zm-4.581-17.977a.75.75,0,0,0-.749.748v9.5a.75.75,0,0,0,.749.748.75.75,0,0,0,.749-.748v-9.5A.75.75,0,0,0-1845.7,16652.023Zm-13.517,4.693a.784.784,0,0,0-.782.783.784.784,0,0,0,.782.783h9.049l-3.355,3.35a.78.78,0,0,0-.229.557.78.78,0,0,0,.229.553.776.776,0,0,0,.554.229.776.776,0,0,0,.554-.229l4.686-4.689a.788.788,0,0,0,.23-.553.788.788,0,0,0-.23-.553l-4.686-4.689a.776.776,0,0,0-.554-.229.776.776,0,0,0-.554.229.78.78,0,0,0-.229.553.78.78,0,0,0,.229.557l3.355,3.35Z" transform="translate(1862.999 -16645)" fill="#108854"/></svg>