<svg xmlns="http://www.w3.org/2000/svg" width="24" height="24" viewBox="0 0 24 24"><g transform="translate(-3217 13729)"><rect width="24" height="24" transform="translate(3217 -13729)" fill="none"/><path d="M18.925,9.992H17.7a7.151,7.151,0,0,0-6.521-6.521V2.25H9.992V3.471A7.151,7.151,0,0,0,3.471,9.992H2.25v1.191H3.471A7.151,7.151,0,0,0,9.992,17.7v1.221h1.191V17.7A7.151,7.151,0,0,0,17.7,11.183h1.221Zm-7.742,6.521V14.161H9.992v2.352a5.966,5.966,0,0,1-5.33-5.33H7.014V9.992H4.662a5.966,5.966,0,0,1,5.33-5.33V7.014h1.191V4.662a5.966,5.966,0,0,1,5.33,5.33H14.161v1.191h2.352a5.966,5.966,0,0,1-5.33,5.33Z" transform="translate(3218.75 -13727.25)"/></g></svg>