<svg xmlns="http://www.w3.org/2000/svg" width="24" height="24" viewBox="0 0 24 24"><g transform="translate(-3217 13563)"><rect width="24" height="24" transform="translate(3217 -13563)" fill="none"/><path d="M15.383,8.382a6.575,6.575,0,0,1-1.513,4.655l5.074,5.074-.834.846-5.074-5.086a6.575,6.575,0,1,1,2.346-5.489ZM8.892,14.2a5.372,5.372,0,0,0,3.788-1.572l-.048.024A5.34,5.34,0,1,0,8.892,14.2ZM11.8,9.44V8.249H9.416V5.866H8.225V8.249H5.843V9.44H8.225v2.382H9.416V9.44Z" transform="translate(3218.752 -13561.248)"/></g></svg>