<svg xmlns="http://www.w3.org/2000/svg" width="24" height="24" viewBox="0 0 24 24"><g transform="translate(-3217 13612)"><rect width="24" height="24" transform="translate(3217 -13612)" fill="none"/><g transform="translate(3221 -13608)"><path d="M13.424,29.485l-.206,1.172a7.68,7.68,0,0,1-2.525-.918l.6-1.031a6.5,6.5,0,0,0,2.136.777Z" transform="translate(-6.819 -15.298)"/><path d="M6.522,24.2l-.912.765a7.731,7.731,0,0,1-1.34-2.329l1.118-.407A6.539,6.539,0,0,0,6.522,24.2Z" transform="translate(-3.796 -12.248)"/><path d="M22.878,29.74a7.68,7.68,0,0,1-2.525.918l-.207-1.172a6.5,6.5,0,0,0,2.136-.777Z" transform="translate(-11.268 -15.298)"/><path d="M28.61,22.228l1.118.407a7.731,7.731,0,0,1-1.34,2.329l-.185-.155-.727-.61a6.54,6.54,0,0,0,1.133-1.971Z" transform="translate(-14.718 -12.247)"/><path d="M9.725,4.718c-.1.02-.188.048-.281.072q-.19.049-.377.109c-.1.032-.194.069-.289.106-.115.044-.228.089-.339.14-.1.043-.191.089-.283.137s-.211.111-.313.17-.182.107-.27.164-.2.133-.293.2-.167.121-.248.186-.188.16-.28.242c-.073.066-.148.129-.217.2-.1.1-.192.2-.285.3a6.518,6.518,0,0,0-1.681,4.366H3.375A7.7,7.7,0,0,1,5.191,6.144l0,0c.055-.066.117-.123.174-.186.11-.122.219-.244.335-.359.083-.081.17-.156.256-.233.109-.1.218-.2.332-.287.1-.076.194-.147.292-.219.114-.083.229-.165.348-.242s.21-.131.317-.193q.184-.107.373-.2c.11-.056.22-.11.334-.161.132-.06.267-.114.4-.167.113-.043.225-.086.34-.124.147-.049.3-.089.447-.129.111-.029.219-.061.331-.085.173-.038.35-.064.526-.089.095-.014.187-.033.283-.043a7.7,7.7,0,0,1,6.792,2.754V3.97h1.191V8.735H13.5V7.544h3.09a6.528,6.528,0,0,0-5.473-2.978,6.617,6.617,0,0,0-.708.04c-.081.009-.16.025-.24.036C10.02,4.664,9.871,4.687,9.725,4.718Z" transform="translate(-3.375 -3.375)"/></g></g></svg>