<svg xmlns="http://www.w3.org/2000/svg" width="24" height="24" viewBox="0 0 24 24"><g transform="translate(-3217 13672)"><rect width="24" height="24" transform="translate(3217 -13672)" fill="none"/><path d="M12.678,17.538l.208,1.191a7.683,7.683,0,0,0,2.525-.917l-.6-1.03A6.48,6.48,0,0,1,12.678,17.538ZM16.555,15.3l.941.762a7.742,7.742,0,0,0,1.334-2.329l-1.114-.4A6.551,6.551,0,0,1,16.555,15.3ZM7.67,17.794a7.683,7.683,0,0,0,2.525.917L10.4,17.52a6.48,6.48,0,0,1-2.138-.774ZM5.389,13.333l-1.114.4a7.742,7.742,0,0,0,1.31,2.329l.191-.155.727-.6a6.551,6.551,0,0,1-1.138-1.971Zm13.894-2.239a7.653,7.653,0,0,0-.476-2.644l-1.114.4a6.658,6.658,0,0,1,.4,2.239ZM17.5,6.121a7.742,7.742,0,0,0-11.911,0V3.948H4.394V8.712H9.159V7.521H6.068a6.551,6.551,0,0,1,10.488-.637Z" transform="translate(3217.725 -13671.326)"/></g></svg>