<svg xmlns="http://www.w3.org/2000/svg" width="25" height="25" viewBox="0 0 25 25"><g transform="translate(-2229 16772)"><rect width="25" height="25" transform="translate(2229 -16772)" fill="none"/><path d="M17.4,16.661l-2.45-2.449a4.194,4.194,0,1,0-.739.739l2.45,2.449Zm-5.747-1.873a3.134,3.134,0,1,1,3.134-3.134,3.134,3.134,0,0,1-3.134,3.134Zm-6.269,0H3.295A1.046,1.046,0,0,1,2.25,13.743v-2.09H3.295v2.09h2.09ZM2.25,7.474H3.295v2.09H2.25Zm12.538-2.09H13.743V3.295h-2.09V2.25h2.09a1.046,1.046,0,0,1,1.045,1.045ZM7.474,2.25h2.09V3.295H7.474ZM3.295,5.384H2.25V3.295A1.046,1.046,0,0,1,3.295,2.25h2.09V3.295H3.295Z" transform="translate(2232.75 -16768.25)" fill="#108854"/></g></svg>