<svg xmlns="http://www.w3.org/2000/svg" width="25" height="25" viewBox="0 0 25 25"><g transform="translate(-2229 17122)"><rect width="25" height="25" transform="translate(2229 -17122)" fill="none"/><g transform="translate(2230.75 -17121.25)"><path d="M16.727,18.035V12.872H14.145v1.291h1.291v3.872H13.5v1.291h5.163V18.035ZM16.081,9a.968.968,0,1,0,.968.968A.968.968,0,0,0,16.081,9Z" transform="translate(-4.796 -2.878)" fill="#108854"/><path d="M11.285,20.32a9.035,9.035,0,1,1,9.035-9.035A9.035,9.035,0,0,1,11.285,20.32Zm0-16.779a7.744,7.744,0,1,0,7.744,7.744A7.744,7.744,0,0,0,11.285,3.541Z" fill="#108854"/></g></g></svg>