<svg xmlns="http://www.w3.org/2000/svg" width="25" height="25" viewBox="0 0 25 25"><g transform="translate(-2240 17222)"><g transform="translate(2240 -17353)"><rect width="25" height="25" transform="translate(0 131)" fill="none"/></g><g transform="translate(2241.75 -17221.625)"><path d="M18.379,20.992H16.911v-4.8a.159.159,0,0,0-.159-.159H15.563a.159.159,0,0,0-.159.159v4.8H13.94a.158.158,0,0,0-.125.256l2.22,2.809a.159.159,0,0,0,.25,0l2.22-2.809A.158.158,0,0,0,18.379,20.992Z" transform="translate(-5.03 -4.54)" fill="#108854"/><path d="M17.064,9.722a6.341,6.341,0,0,0-11.86,0,3.964,3.964,0,0,0,1.009,7.8h.795a.159.159,0,0,0,.159-.159V16.169a.159.159,0,0,0-.159-.159H6.212a2.459,2.459,0,0,1-1.936-3.972,2.484,2.484,0,0,1,1.31-.866l.751-.2.275-.725A4.766,4.766,0,0,1,7.32,8.994a4.868,4.868,0,0,1,1.039-.989,4.833,4.833,0,0,1,5.55,0,4.87,4.87,0,0,1,1.039.989,4.8,4.8,0,0,1,.708,1.257l.274.723.749.2a2.469,2.469,0,0,1,1.825,2.38,2.456,2.456,0,0,1-2.456,2.458h-.795a.159.159,0,0,0-.159.159v1.189a.159.159,0,0,0,.159.159h.795a3.964,3.964,0,0,0,1.017-7.8Z" fill="#108854"/></g></g></svg>