<svg xmlns="http://www.w3.org/2000/svg" width="25" height="25" viewBox="0 0 25 25"><g transform="translate(-2229 16982)"><rect width="25" height="25" transform="translate(2229 -16982)" fill="none"/><path d="M8.474,7.3l.962-.962a.176.176,0,0,0-.1-.3L5.823,5.624a.176.176,0,0,0-.2.2L6.042,9.33a.176.176,0,0,0,.3.1L7.3,8.475l2.93,2.928a.176.176,0,0,0,.248,0l.929-.927a.176.176,0,0,0,0-.248ZM16.2,11.4a.176.176,0,0,0,.248,0l2.93-2.928.958.958a.176.176,0,0,0,.3-.1l.414-3.509a.176.176,0,0,0-.2-.2l-3.511.414a.176.176,0,0,0-.1.3L18.2,7.3l-2.93,2.926a.176.176,0,0,0,0,.248Zm4.433,5.943a.176.176,0,0,0-.3-.1l-.958.958-2.93-2.928a.176.176,0,0,0-.248,0l-.929.927a.176.176,0,0,0,0,.248l2.93,2.93-.962.962a.176.176,0,0,0,.1.3l3.511.414a.176.176,0,0,0,.2-.2ZM10.475,15.273a.176.176,0,0,0-.248,0L7.3,18.2l-.958-.958a.176.176,0,0,0-.3.1l-.414,3.509a.176.176,0,0,0,.2.2l3.511-.414a.176.176,0,0,0,.1-.3l-.962-.96L11.4,16.45a.176.176,0,0,0,0-.248l-.929-.929Z" transform="translate(2228.374 -16982.623)" fill="#108854"/></g></svg>