<svg xmlns="http://www.w3.org/2000/svg" width="25" height="25" viewBox="0 0 25 25"><g transform="translate(-2229 17051)"><rect width="25" height="25" transform="translate(2229 -17051)" fill="none"/><g transform="translate(-0.669 -0.417)"><path d="M15.087,24.678A7.087,7.087,0,0,1,8,17.591v-8.5a7.087,7.087,0,1,1,14.174,0v8.5A7.087,7.087,0,0,1,15.087,24.678Zm0-21.26A5.669,5.669,0,0,0,9.417,9.087v8.5a5.669,5.669,0,1,0,11.339,0v-8.5A5.669,5.669,0,0,0,15.087,3.417Z" transform="translate(2226.669 -17051.582)" fill="#108854"/><path d="M17.709,13.252A.709.709,0,0,1,17,12.543V9.709a.709.709,0,1,1,1.417,0v2.835A.709.709,0,0,1,17.709,13.252Z" transform="translate(2224.048 -17053.621)" fill="#108854"/></g></g></svg>