<svg xmlns="http://www.w3.org/2000/svg" width="25" height="25" viewBox="0 0 25 25"><g transform="translate(-2229 16912)"><rect width="25" height="25" transform="translate(2229 -16912)" fill="none"/><g transform="translate(2231 -16910)"><path d="M18.19,7.337H17.021V5H6.505V7.337H5.337A2.337,2.337,0,0,0,3,9.674V16.1H5.29V14.984H4.168V9.674A1.168,1.168,0,0,1,5.337,8.505H18.19a1.168,1.168,0,0,1,1.168,1.168v5.258H18.236V16.1h2.29V9.674A2.337,2.337,0,0,0,18.19,7.337Zm-2.337,0H7.674V6.168h8.179Z" transform="translate(-1.247 -2.079)" fill="#108854"/><path d="M19.269,18H7.584a.584.584,0,0,0,0,1.168h.584v7.011H18.684V19.168h.584a.584.584,0,1,0,0-1.168Zm-1.753,7.011H9.337V19.168h8.179Z" transform="translate(-2.91 -7.484)" fill="#108854"/><path d="M27,13.04h1.168v1.168H27Z" transform="translate(-11.226 -5.422)" fill="#108854"/><path d="M0,0H21.032V21.032H0Z" fill="none"/></g></g></svg>