<svg xmlns="http://www.w3.org/2000/svg" width="25" height="25" viewBox="0 0 25 25"><g transform="translate(-2229 17192)"><g transform="translate(2229 -17323)"><rect width="25" height="25" transform="translate(0 131)" fill="none"/></g><g transform="translate(2228 -17194)"><path d="M6.656,4H21.75a2.659,2.659,0,0,1,2.656,2.656V17.437a2.659,2.659,0,0,1-2.656,2.656H6.656A2.659,2.659,0,0,1,4,17.437V6.656A2.659,2.659,0,0,1,6.656,4ZM21.75,19.094a1.658,1.658,0,0,0,1.656-1.656V6.656A1.658,1.658,0,0,0,21.75,5H6.656A1.658,1.658,0,0,0,5,6.656V17.437a1.658,1.658,0,0,0,1.656,1.656Z" fill="#108854"/><path d="M23.25,32H22.172a.5.5,0,0,1,0-1H23.25a.5.5,0,0,1,0,1Z" transform="translate(-0.422 -7.594)" fill="#108854"/></g></g></svg>