<svg xmlns="http://www.w3.org/2000/svg" width="25" height="25" viewBox="0 0 25 25"><g transform="translate(-2229 16842)"><rect width="25" height="25" transform="translate(2229 -16842)" fill="none"/><path d="M10.944-9.984a5.958,5.958,0,0,0-.128-1.008.14.14,0,0,0-.144-.128.2.2,0,0,0-.1.016,16.686,16.686,0,0,1-2.864.928l.128-.56c.08-.368.464-.576.464-.768,0-.352-1.7-.576-1.856-.576-.064,0-.08.016-.08.1v.288c0,.384-.08,1.024-.16,1.792a10.892,10.892,0,0,1-1.248.08A8.646,8.646,0,0,1,3.5-9.952h-.08c-.128,0-.144.064-.144.16,0,1.168.24,1.264.368,1.28a6.385,6.385,0,0,0,.976.064c.464,0,.96-.048,1.44-.1-.064.608-.128,1.28-.176,1.952C4.4-5.872,2.336-4.5,2.336-2.064c0,.9.432,1.632,1.392,1.632a4.305,4.305,0,0,0,2.4-.976c.176.832.24.912.336.912a.2.2,0,0,0,.1-.016c.224-.064.864-.464,1.1-.576a.213.213,0,0,0,.128-.16A.059.059,0,0,0,7.776-1.3a5.149,5.149,0,0,1-.4-1.152,14.957,14.957,0,0,0,2.672-3.616C12.3-5.616,12.3-3.9,12.3-3.76c0,1.376-1.344,2.976-4.9,3.392-.128.016-.16.032-.16.064s.032.064.064.1a4.134,4.134,0,0,1,.8.9A.279.279,0,0,0,8.4.832c1.28,0,5.584-1.216,5.584-4.544,0-1.264-.736-2.928-3.36-3.552.1-.08.368-.224.368-.368,0-.272-1.488-.832-1.68-.832-.08,0-.08.1-.1.16a6.543,6.543,0,0,1-.208.9,6.98,6.98,0,0,0-1.792.288c.064-.576.144-1.12.224-1.632a22.8,22.8,0,0,0,3.28-.864.32.32,0,0,0,.224-.3ZM5.824-4.56c0,.576.016,1.136.064,1.68A3.837,3.837,0,0,1,4.224-1.9c-.272,0-.368-.224-.368-.512,0-1.344,1.168-2.144,1.968-2.672Zm2.7-1.552a12.182,12.182,0,0,1-1.456,2.24c-.016-.272-.032-.56-.032-.832,0-.336.016-.688.032-1.024A5.935,5.935,0,0,1,8.528-6.112Z" transform="translate(2233.664 -16823.92)" fill="#108854"/></g></svg>