<svg xmlns="http://www.w3.org/2000/svg" width="25" height="25" viewBox="0 0 25 25"><g transform="translate(-2236 17230)"><g transform="translate(2236 -17361)"><rect width="25" height="25" transform="translate(0 131)" fill="none"/></g><g transform="translate(-8.735 -2.344)"><path d="M10.543,26h2.17a.543.543,0,0,1,.543.543v2.17a.543.543,0,0,1-.543.543h-2.17A.543.543,0,0,1,10,28.713v-2.17A.543.543,0,0,1,10.543,26Z" transform="translate(2243.16 -17237.551)" fill="#108854"/><path d="M9.053,11.425H6.883a.543.543,0,0,0-.543.543v.651H4.062V9.255h.651a.543.543,0,0,0,.543-.543V6.543A.543.543,0,0,0,4.713,6H2.543A.543.543,0,0,0,2,6.543v2.17a.543.543,0,0,0,.543.543h.651v9.657H6.883a.434.434,0,0,0,0-.868H4.062V13.487H6.34v.651a.543.543,0,0,0,.543.543h2.17a.543.543,0,0,0,.543-.543v-2.17A.543.543,0,0,0,9.053,11.425Z" transform="translate(2246.82 -17228.4)" fill="#108854"/><path d="M22.478,8H10V9.085H22.478a.543.543,0,0,0,0-1.085Z" transform="translate(2243.16 -17229.316)" fill="#108854"/><path d="M26.138,18H18v1.085h8.138a.543.543,0,1,0,0-1.085Z" transform="translate(2239.5 -17233.891)" fill="#108854"/><path d="M26.138,28H18v1.085h8.138a.543.543,0,1,0,0-1.085Z" transform="translate(2239.5 -17238.467)" fill="#108854"/><path d="M0,0H19.53V19.53H0Z" transform="translate(2247.735 -17225.656)" fill="none"/></g></g></svg>